<?xml version="1.0" encoding="UTF-8"?>
<svg version="1.1" xmlns="http://www.w3.org/2000/svg" width="381" height="381">
<path d="M0 0 C0.84390289 0.00304138 1.68780579 0.00608276 2.55728149 0.00921631 C54.55005082 0.28485155 102.12490989 21.95865863 138.8125 58.4375 C149.99654966 70.62386288 159.88712665 83.91585317 167.8125 98.4375 C168.15619629 99.06446777 168.49989258 99.69143555 168.85400391 100.33740234 C176.16754466 113.86281958 181.5329082 128.10953388 185.5625 142.9375 C185.74901123 143.61079346 185.93552246 144.28408691 186.12768555 144.9777832 C189.99694711 160.02259702 191.36963163 175.13732047 191.25 190.625 C191.24543793 191.89085434 191.24543793 191.89085434 191.24078369 193.18228149 C190.96514845 245.17505082 169.29134137 292.74990989 132.8125 329.4375 C120.62613712 340.62154966 107.33414683 350.51212665 92.8125 358.4375 C91.87204834 358.95304443 91.87204834 358.95304443 90.91259766 359.47900391 C77.38718042 366.79254466 63.14046612 372.1579082 48.3125 376.1875 C47.63920654 376.37401123 46.96591309 376.56052246 46.2722168 376.75268555 C31.22740298 380.62194711 16.11267953 381.99463163 0.625 381.875 C-0.21890289 381.87195862 -1.06280579 381.86891724 -1.93228149 381.86578369 C-53.92505082 381.59014845 -101.49990989 359.91634137 -138.1875 323.4375 C-149.37154966 311.25113712 -159.26212665 297.95914683 -167.1875 283.4375 C-167.70304443 282.49704834 -167.70304443 282.49704834 -168.22900391 281.53759766 C-175.54254466 268.01218042 -180.9079082 253.76546612 -184.9375 238.9375 C-185.12401123 238.26420654 -185.31052246 237.59091309 -185.50268555 236.8972168 C-189.37194711 221.85240298 -190.74463163 206.73767953 -190.625 191.25 C-190.62195862 190.40609711 -190.61891724 189.56219421 -190.61578369 188.69271851 C-190.34014845 136.69994918 -168.66634137 89.12509011 -132.1875 52.4375 C-120.00113712 41.25345034 -106.70914683 31.36287335 -92.1875 23.4375 C-91.56053223 23.09380371 -90.93356445 22.75010742 -90.28759766 22.39599609 C-76.76218042 15.08245534 -62.51546612 9.7170918 -47.6875 5.6875 C-47.01420654 5.50098877 -46.34091309 5.31447754 -45.6472168 5.12231445 C-30.60240298 1.25305289 -15.48767953 -0.11963163 0 0 Z " fill="#131F26" transform="translate(190.1875,-0.4375)"/>
<path d="M0 0 C2.31376672 2.31376672 3.24172207 3.99337824 4.125 7.125 C4.125 8.115 4.125 9.105 4.125 10.125 C2.02195523 10.2330023 -0.08266909 10.31058987 -2.1875 10.375 C-3.94513672 10.44460937 -3.94513672 10.44460937 -5.73828125 10.515625 C-8.875 10.125 -8.875 10.125 -10.53125 8.125 C-10.9746875 7.465 -11.418125 6.805 -11.875 6.125 C-13.9238648 5.64442285 -13.9238648 5.64442285 -16.0625 5.875 C-17.9496875 5.99875 -17.9496875 5.99875 -19.875 6.125 C-19.875 7.445 -19.875 8.765 -19.875 10.125 C-18.78960937 10.37894531 -17.70421875 10.63289062 -16.5859375 10.89453125 C-15.14053276 11.24180382 -13.69522535 11.58948164 -12.25 11.9375 C-11.53714844 12.10314453 -10.82429688 12.26878906 -10.08984375 12.43945312 C0.75980839 15.07721259 0.75980839 15.07721259 4.125 20.125 C6.59357715 19.0278546 8.27019584 17.98857974 10.2578125 16.12109375 C13.84344172 13.62483145 17.07687834 13.27864962 21.3125 12.9375 C26.37325433 12.6385267 26.37325433 12.6385267 31.125 11.125 C31.125 9.805 31.125 8.485 31.125 7.125 C28.16835481 5.6466774 25.38270263 6.06467217 22.125 6.125 C21.465 7.445 20.805 8.765 20.125 10.125 C15.835 10.125 11.545 10.125 7.125 10.125 C7.455 7.485 7.785 4.845 8.125 2.125 C9.115 1.795 10.105 1.465 11.125 1.125 C11.125 0.465 11.125 -0.195 11.125 -0.875 C18.64626572 -5.59422555 25.63265303 -5.81392849 34.33984375 -4.5546875 C38.93542168 -3.44853089 42.57067145 -1.14676288 45.24951172 2.76855469 C46.50177726 6.13912552 46.37091369 9.40867184 46.3203125 12.953125 C46.3174826 13.70213074 46.31465271 14.45113647 46.31173706 15.22283936 C46.3005726 17.60705776 46.27547531 19.99089579 46.25 22.375 C46.23996535 23.99478623 46.23084035 25.61457836 46.22265625 27.234375 C46.20064555 31.19806246 46.16614175 35.16146681 46.125 39.125 C41.505 39.125 36.885 39.125 32.125 39.125 C31.63 37.145 31.63 37.145 31.125 35.125 C29.145 36.115 29.145 36.115 27.125 37.125 C27.125 37.785 27.125 38.445 27.125 39.125 C13.16205538 39.81358357 13.16205538 39.81358357 9.4375 37.375 C7.3989127 35.39150965 5.66211282 33.51606439 4.125 31.125 C3.568125 31.888125 3.01125 32.65125 2.4375 33.4375 C-1.53552395 38.0547981 -5.58025205 39.83030847 -11.5390625 40.36328125 C-18.65776184 40.5417183 -24.73346587 39.97608996 -30.875 36.125 C-33.19501992 33.86782487 -34.3107391 32.04495367 -35.875 29.125 C-35.875 27.805 -35.875 26.485 -35.875 25.125 C-33.79281638 25.01667831 -31.70900871 24.93926459 -29.625 24.875 C-27.88476562 24.80539063 -27.88476562 24.80539063 -26.109375 24.734375 C-22.21464852 25.20475259 -21.45624897 26.32500112 -18.875 29.125 C-16.09357957 29.63255847 -13.7292771 29.31528514 -10.875 29.125 C-10.545 27.805 -10.215 26.485 -9.875 25.125 C-11.03257812 24.88265625 -12.19015625 24.6403125 -13.3828125 24.390625 C-14.92202146 24.05274986 -16.46107601 23.71417075 -18 23.375 C-19.14082031 23.13910156 -19.14082031 23.13910156 -20.3046875 22.8984375 C-25.86335902 21.65252837 -30.73915576 20.03751488 -34.25 15.25 C-35.06256857 12.48726686 -35.00510404 9.98728888 -34.875 7.125 C-36.48280009 7.3271062 -38.08639655 7.56282865 -39.6875 7.8125 C-40.58082031 7.94011719 -41.47414063 8.06773437 -42.39453125 8.19921875 C-45.76172734 9.45595178 -46.31322547 10.93277716 -47.875 14.125 C-48.37205774 17.01533449 -48.37205774 17.01533449 -48.38671875 20.08203125 C-48.42216797 21.19384766 -48.45761719 22.30566406 -48.49414062 23.45117188 C-48.52797852 25.1769043 -48.52797852 25.1769043 -48.5625 26.9375 C-48.59666016 28.10732422 -48.63082031 29.27714844 -48.66601562 30.48242188 C-48.74831637 33.36294788 -48.81333933 36.24395828 -48.875 39.125 C-53.495 39.125 -58.115 39.125 -62.875 39.125 C-62.875 24.935 -62.875 10.745 -62.875 -3.875 C-58.255 -3.875 -53.635 -3.875 -48.875 -3.875 C-48.545 -2.885 -48.215 -1.895 -47.875 -0.875 C-47.400625 -1.37 -46.92625 -1.865 -46.4375 -2.375 C-42.67141649 -4.57953669 -39.14040621 -4.12108113 -34.875 -3.875 C-34.545 -1.895 -34.215 0.085 -33.875 2.125 C-33.215 1.34125 -32.555 0.5575 -31.875 -0.25 C-22.97225022 -8.03990606 -9.28748001 -6.05705218 0 0 Z " fill="#25DA90" transform="translate(164.875,177.875)"/>
<path d="M0 0 C6.27 0 12.54 0 19 0 C24.02983056 11.68695924 28.40697555 23.56000514 32.0625 35.75 C34.0820861 42.26479388 36.55152932 48.63397623 39 55 C39.33 36.85 39.66 18.7 40 0 C44.95 0 49.9 0 55 0 C55 20.13 55 40.26 55 61 C44.44 61 33.88 61 23 61 C21 53 21 53 21 49 C13.41 49 5.82 49 -2 49 C-2.66 51.97 -3.32 54.94 -4 58 C-4.33 58.99 -4.66 59.98 -5 61 C-9.95 61 -14.9 61 -20 61 C-19.52936488 53.15608126 -16.76009408 46.29245909 -14 39 C-12.80658968 35.83552021 -11.61890731 32.66898114 -10.4375 29.5 C-9.98624756 28.29150391 -9.98624756 28.29150391 -9.52587891 27.05859375 C-7.33118272 21.10001167 -5.51022328 15.13157223 -3.921875 8.98046875 C-3 6 -3 6 0 0 Z " fill="#21E091" transform="translate(286,156)"/>
<path d="M0 0 C5.12815983 3.90263672 8.69409731 8.78589027 9.9609375 15.20703125 C11.23513772 26.14104664 10.82840429 35.95897851 5.25 45.6875 C0.00022626 52.03555276 -6.65452328 55.4284651 -14.75 56.6875 C-24.78782177 56.75176262 -32.08111027 55.29292975 -39.5 48.4375 C-46.43735168 41.04082595 -48.03588376 33.1147614 -47.90234375 23.203125 C-47.42136325 15.26078035 -44.58068866 7.9651395 -39.375 1.9375 C-26.79695643 -8.84368021 -13.48213224 -8.77500848 0 0 Z " fill="#28D88F" transform="translate(89.75,161.3125)"/>
<path d="M0 0 C3.44529526 2.29686351 5.55880676 4.12091545 7 8 C7.16811103 10.64711601 7.23305596 13.18431534 7.1953125 15.828125 C7.1924826 16.57713074 7.18965271 17.32613647 7.18673706 18.09783936 C7.1755726 20.48205776 7.15047531 22.86589579 7.125 25.25 C7.11496535 26.86978623 7.10584035 28.48957836 7.09765625 30.109375 C7.07564555 34.07306246 7.04114175 38.03646681 7 42 C2.38 42 -2.24 42 -7 42 C-7.495 40.02 -7.495 40.02 -8 38 C-9.32 38.66 -10.64 39.32 -12 40 C-12 40.66 -12 41.32 -12 42 C-25.96294462 42.68858357 -25.96294462 42.68858357 -29.6875 40.25 C-31.7260873 38.26650965 -33.46288718 36.39106439 -35 34 C-35.556875 34.763125 -36.11375 35.52625 -36.6875 36.3125 C-38.98412874 38.98155503 -40.87247757 40.43623879 -44 42 C-44.66 42 -45.32 42 -46 42 C-46 41.34 -46 40.68 -46 40 C-44.02 39.34 -42.04 38.68 -40 38 C-39.67 35.36 -39.34 32.72 -39 30 C-38.01 29.67 -37.02 29.34 -36 29 C-36 27.68 -36 26.36 -36 25 C-36.66 25 -37.32 25 -38 25 C-38.4125 24.360625 -38.825 23.72125 -39.25 23.0625 C-41.59697894 20.29641768 -43.48008781 20.31288108 -47 20 C-46.505 18.515 -46.505 18.515 -46 17 C-40.64951939 17.37328935 -38.49087093 18.9957657 -35 23 C-32.53142285 21.9028546 -30.85480416 20.86357974 -28.8671875 18.99609375 C-25.28155828 16.49983145 -22.04812166 16.15364962 -17.8125 15.8125 C-12.75174567 15.5135267 -12.75174567 15.5135267 -8 14 C-8 12.68 -8 11.36 -8 10 C-10.95664519 8.5216774 -13.74229737 8.93967217 -17 9 C-17.66 10.32 -18.32 11.64 -19 13 C-23.29 13 -27.58 13 -32 13 C-31.67 10.36 -31.34 7.72 -31 5 C-30.01 4.67 -29.02 4.34 -28 4 C-28 3.34 -28 2.68 -28 2 C-19.51512368 -3.32384396 -9.29828754 -3.87428648 0 0 Z " fill="#21DB8D" transform="translate(204,175)"/>
<path d="M0 0 C4.62 0 9.24 0 14 0 C14.84884766 2.58134766 14.84884766 2.58134766 15.71484375 5.21484375 C16.455572 7.45578112 17.19646596 9.69666373 17.9375 11.9375 C18.49727539 13.64196289 18.49727539 13.64196289 19.06835938 15.38085938 C19.60493164 17.00024414 19.60493164 17.00024414 20.15234375 18.65234375 C20.48226318 19.65257568 20.81218262 20.65280762 21.15209961 21.68334961 C21.79028011 23.9306108 21.79028011 23.9306108 23 25 C23.3556604 23.97060303 23.3556604 23.97060303 23.71850586 22.92041016 C24.79009183 19.82144971 25.86376926 16.72321794 26.9375 13.625 C27.31068359 12.54476562 27.68386719 11.46453125 28.06835938 10.3515625 C28.42607422 9.3203125 28.78378906 8.2890625 29.15234375 7.2265625 C29.48226318 6.27346191 29.81218262 5.32036133 30.15209961 4.33837891 C31 2 31 2 32 0 C36.62 0 41.24 0 46 0 C44.05438587 7.09576919 41.55005597 13.85062579 38.83422852 20.67675781 C37.18062576 24.86490694 35.6108763 29.06366845 34.1640625 33.328125 C33.8640332 34.21193848 33.56400391 35.09575195 33.25488281 36.00634766 C32.68547393 37.70098686 32.12435919 39.39844518 31.57324219 41.09912109 C29.35236881 47.70072823 26.4198716 55.47942525 20 59 C16.56112458 60.11782858 13.34835716 60.10161258 9.75 60.0625 C8.67234375 60.05347656 7.5946875 60.04445312 6.484375 60.03515625 C5.66453125 60.02355469 4.8446875 60.01195312 4 60 C4 56.37 4 52.74 4 49 C8.95 48.505 8.95 48.505 14 48 C14.59174449 40.61644183 12.5198734 35.06241032 9.8125 28.25 C9.40265869 27.1868457 8.99281738 26.12369141 8.57055664 25.02832031 C6.11072991 18.6834558 3.57023055 12.3782901 0.77734375 6.171875 C0 4 0 4 0 0 Z " fill="#23DE90" transform="translate(210,174)"/>
<path d="M0 0 C5.11762818 2.65358498 8.17705942 5.53117826 10 11 C10.14703064 13.43448818 10.22105339 15.8737477 10.25 18.3125 C10.27578125 19.60800781 10.3015625 20.90351563 10.328125 22.23828125 C9.81280073 28.14610595 7.50995428 32.19472607 3 36 C-1.05951777 37.35317259 -4.75544229 37.53804253 -9 37 C-13.32298892 34.46259346 -16.04332559 31.04518897 -17.5546875 26.234375 C-18.87544364 19.60742315 -19.34005429 12.29969082 -15.75 6.375 C-14.34375 4.5234375 -14.34375 4.5234375 -13 3 C-12.4225 2.34 -11.845 1.68 -11.25 1 C-7.54042889 -0.64869827 -3.97865972 -0.62857298 0 0 Z " fill="#132026" transform="translate(75,168)"/>
<path d="M0 0 C6.27 0 12.54 0 19 0 C25.7826087 15.65217391 25.7826087 15.65217391 24 21 C22.37667033 22.38576923 20.71275535 23.72641268 19 25 C18.505 23.515 18.505 23.515 18 22 C17.34 21.67 16.68 21.34 16 21 C15.7909375 26.12203127 16.58738024 30.10291818 18 35 C17.67 35.99 17.34 36.98 17 38 C12.38 38 7.76 38 3 38 C3.59168598 31.32240112 4.23573952 24.65998421 5 18 C4.34 18 3.68 18 3 18 C3 17.34 3 16.68 3 16 C2.01 16 1.02 16 0 16 C-0.33 16.99 -0.66 17.98 -1 19 C-2.32 18.67 -3.64 18.34 -5 18 C-4.938125 19.010625 -4.87625 20.02125 -4.8125 21.0625 C-5.02642827 25.55499372 -6.04613532 28.01085961 -8 32 C-7.34 32.33 -6.68 32.66 -6 33 C-7.485 33.495 -7.485 33.495 -9 34 C-9.061875 34.721875 -9.12375 35.44375 -9.1875 36.1875 C-10.24456647 39.84657625 -12.20550071 41.49211602 -15 44 C-13.39415163 38.33383583 -11.5853851 32.78171667 -9.5625 27.25 C-7.39496363 21.28764771 -5.61127929 15.28873927 -3.9921875 9.15625 C-3 6 -3 6 0 0 Z " fill="#23DD90" transform="translate(286,156)"/>
<path d="M0 0 C16.29704207 -0.62591769 16.29704207 -0.62591769 23 3 C23.495 3.99 23.495 3.99 24 5 C24.66 5 25.32 5 26 5 C30.181822 14.69965467 34.26923658 24.42914687 38 34.3125 C38.30236572 35.09343018 38.60473145 35.87436035 38.91625977 36.67895508 C40.49146111 40.92392667 41.44687018 44.39863366 41 49 C40 50.875 40 50.875 38 52 C35.28121737 52.24131207 32.7407889 52.1347929 30 52 C30 55.63 30 59.26 30 63 C32.56591525 62.77084658 35.12554352 62.51756726 37.6875 62.25 C38.40873047 62.188125 39.12996094 62.12625 39.87304688 62.0625 C44.67529135 61.53622663 47.57829228 60.66215205 51 57 C52.70983069 54.02346566 52.70983069 54.02346566 54 50.625 C54.36955811 49.71983643 54.36955811 49.71983643 54.74658203 48.79638672 C57.37255967 42.27607918 59.71704948 35.64682055 62 29 C62.99 30.485 62.99 30.485 64 32 C63.34 32 62.68 32 62 32 C62.21011719 32.54398438 62.42023438 33.08796875 62.63671875 33.6484375 C63.1363531 36.88262973 62.14755579 38.65733932 60.8125 41.625 C58.73853639 46.32445216 56.80268928 51.03710812 54.9921875 55.84375 C53.92250461 58.16841517 52.60026379 60.01097156 51 62 C51.66 62.33 52.32 62.66 53 63 C53 64.32 53 65.64 53 67 C51.68 67 50.36 67 49 67 C48.67 66.34 48.34 65.68 48 65 C44.89635771 64.80303551 41.79207808 64.61906738 38.6875 64.4375 C37.80642578 64.38142578 36.92535156 64.32535156 36.01757812 64.26757812 C35.17001953 64.21923828 34.32246094 64.17089844 33.44921875 64.12109375 C32.66893311 64.0739624 31.88864746 64.02683105 31.0847168 63.97827148 C28.80262292 63.89561279 28.80262292 63.89561279 26 65 C25.97298592 62.89590361 25.95359777 60.79170822 25.9375 58.6875 C25.92589844 57.51574219 25.91429687 56.34398437 25.90234375 55.13671875 C26 52 26 52 27 49 C22.60563789 48.14256349 18.47427924 47.91051442 14 48 C13.67 48.66 13.34 49.32 13 50 C13 49.01 13 48.02 13 47 C11.96166016 47.24363281 11.96166016 47.24363281 10.90234375 47.4921875 C7.73420757 48.04650473 4.77773771 48.13257418 1.5625 48.125 C0.47066406 48.12757813 -0.62117187 48.13015625 -1.74609375 48.1328125 C-4.91502727 48.00346827 -7.87945236 47.54083769 -11 47 C-12.32 47 -13.64 47 -15 47 C-14.505 44.03 -14.505 44.03 -14 41 C-14.66 40.67 -15.32 40.34 -16 40 C-15.34 38.68 -14.68 37.36 -14 36 C-12.6328125 38.63671875 -12.6328125 38.63671875 -11.265625 41.2734375 C-9.65338267 43.4728545 -8.58054939 44.09332049 -6 45 C-3.59162245 45.28878735 -1.17189532 45.49045026 1.25 45.625 C2.51328125 45.69976562 3.7765625 45.77453125 5.078125 45.8515625 C6.04234375 45.90054688 7.0065625 45.94953125 8 46 C8 45.34 8 44.68 8 44 C10 42.375 10 42.375 12 41 C12.66 41.33 13.32 41.66 14 42 C13.67 43.32 13.34 44.64 13 46 C17.62 46 22.24 46 27 46 C26.93097795 41.24891856 26.84294247 36.49870507 26.73754883 31.74829102 C26.7043689 30.13348037 26.67631542 28.51855569 26.65356445 26.90356445 C26.61988975 24.57714408 26.56757037 22.25176217 26.51171875 19.92578125 C26.50532883 19.20787918 26.4989389 18.48997711 26.49235535 17.75032043 C26.36411844 13.3428005 25.6699706 10.52736043 23 7 C18.69830998 3.44851195 14.04461984 3.27337298 8.6875 2.8125 C7.85154297 2.73064453 7.01558594 2.64878906 6.15429688 2.56445312 C4.10390612 2.36527231 2.05206438 2.18112718 0 2 C0 1.34 0 0.68 0 0 Z " fill="#0A2B26" transform="translate(184,171)"/>
<path d="M0 0 C1.29207 0.53464966 2.56180575 1.12465287 3.8125 1.75 C3.4825 3.73 3.1525 5.71 2.8125 7.75 C4.1325 7.09 5.4525 6.43 6.8125 5.75 C6.8125 7.73 6.8125 9.71 6.8125 11.75 C7.8025 11.75 8.7925 11.75 9.8125 11.75 C11.23058685 19.72673853 12.09887634 28.15025472 8.8125 35.75 C8.1525 35.75 7.4925 35.75 6.8125 35.75 C6.668125 36.36875 6.52375 36.9875 6.375 37.625 C5.8125 39.75 5.8125 39.75 4.8125 41.75 C3.8225 42.245 3.8225 42.245 2.8125 42.75 C2.4825 43.41 2.1525 44.07 1.8125 44.75 C1.1525 43.76 0.4925 42.77 -0.1875 41.75 C-3.30535113 42.39644661 -3.30535113 42.39644661 -4.1875 44.75 C-2.8675 45.08 -1.5475 45.41 -0.1875 45.75 C-0.1875 46.41 -0.1875 47.07 -0.1875 47.75 C-1.1775 47.75 -2.1675 47.75 -3.1875 47.75 C-3.1875 48.41 -3.1875 49.07 -3.1875 49.75 C-4.1775 49.75 -5.1675 49.75 -6.1875 49.75 C-6.1875 48.76 -6.1875 47.77 -6.1875 46.75 C-6.8475 46.75 -7.5075 46.75 -8.1875 46.75 C-8.1875 47.41 -8.1875 48.07 -8.1875 48.75 C-14.1275 48.75 -20.0675 48.75 -26.1875 48.75 C-26.1875 47.43 -26.1875 46.11 -26.1875 44.75 C-25.07890625 44.55664062 -23.9703125 44.36328125 -22.828125 44.1640625 C-21.36452524 43.90136511 -19.90098673 43.63832633 -18.4375 43.375 C-17.34308594 43.18550781 -17.34308594 43.18550781 -16.2265625 42.9921875 C-10.92690322 42.10416618 -10.92690322 42.10416618 -6.1875 39.75 C-4.89518358 36.70800528 -4.89518358 36.70800528 -4.1875 33.75 C-3.5275 33.75 -2.8675 33.75 -2.1875 33.75 C-2.435 32.49896484 -2.435 32.49896484 -2.6875 31.22265625 C-3.22584446 27.48368577 -3.24845302 23.96277756 -3.1875 20.1875 C-3.11787017 15.86609841 -3.15402267 11.95657569 -4.1875 7.75 C-3.5275 7.75 -2.8675 7.75 -2.1875 7.75 C-1.8575 6.43 -1.5275 5.11 -1.1875 3.75 C-1.80625 3.95625 -2.425 4.1625 -3.0625 4.375 C-3.76375 4.49875 -4.465 4.6225 -5.1875 4.75 C-5.8475 4.09 -6.5075 3.43 -7.1875 2.75 C-2.77140579 -0.31673209 -2.77140579 -0.31673209 0 0 Z " fill="#20E190" transform="translate(88.1875,163.25)"/>
<path d="M0 0 C1.65 0 3.3 0 5 0 C4.67 2.97 4.34 5.94 4 9 C4.66 9.33 5.32 9.66 6 10 C5.67475342 10.71712158 5.34950684 11.43424316 5.0144043 12.1730957 C3.97053073 15.08212387 3.75523284 17.15855326 3.76953125 20.23046875 C3.77243164 21.68163086 3.77243164 21.68163086 3.77539062 23.16210938 C3.78763672 24.16048828 3.79988281 25.15886719 3.8125 26.1875 C3.81314453 27.19748047 3.81378906 28.20746094 3.81445312 29.24804688 C3.6358375 34.28753683 3.6358375 34.28753683 5 39 C6.32 39 7.64 39 9 39 C9 39.66 9 40.32 9 41 C8.34 41 7.68 41 7 41 C7 41.66 7 42.32 7 43 C6.34 43 5.68 43 5 43 C4.34 42.34 3.68 41.68 3 41 C2.67 41.99 2.34 42.98 2 44 C-0.9375 43.625 -0.9375 43.625 -4 43 C-4.33 42.34 -4.66 41.68 -5 41 C-5.66 41 -6.32 41 -7 41 C-11.4990881 32.78427391 -12.30823698 23.66276255 -10.0625 14.5625 C-9.40715113 12.36515379 -8.72510775 10.17532325 -8 8 C-7.01 8 -6.02 8 -5 8 C-4.8453125 7.0409375 -4.8453125 7.0409375 -4.6875 6.0625 C-4.460625 5.381875 -4.23375 4.70125 -4 4 C-3.01 3.67 -2.02 3.34 -1 3 C-0.67 2.01 -0.34 1.02 0 0 Z " fill="#23DE91" transform="translate(53,163)"/>
<path d="M0 0 C2.5 0.125 2.5 0.125 5 1 C6.125 3 6.125 3 7 5 C7.99 5.33 8.98 5.66 10 6 C10 15.9 10 25.8 10 36 C7.04335481 37.4783226 4.25770263 37.06032783 1 37 C1 36.01 1 35.02 1 34 C0.2575 34.185625 -0.485 34.37125 -1.25 34.5625 C-3.94990963 34.99203108 -5.44631077 34.85122974 -8 34 C-7 31 -7 31 -4.5625 29.5625 C-1.84333111 27.90447019 -1.10592885 26.91563061 0 24 C0.66 24 1.32 24 2 24 C1.34 22.35 0.68 20.7 0 19 C-1.35544922 18.90912109 -1.35544922 18.90912109 -2.73828125 18.81640625 C-3.91777344 18.73261719 -5.09726563 18.64882812 -6.3125 18.5625 C-7.48425781 18.48128906 -8.65601563 18.40007812 -9.86328125 18.31640625 C-13 18 -13 18 -16 17 C-16.33 16.34 -16.66 15.68 -17 15 C-13.27116893 13.90428426 -9.97156177 13.99782623 -6.12109375 14.16015625 C-3.69576058 14.15140845 -3.69576058 14.15140845 -1 12 C-1.09539062 11.30132812 -1.19078125 10.60265625 -1.2890625 9.8828125 C-1.39992187 8.97273437 -1.51078125 8.06265625 -1.625 7.125 C-1.74101562 6.22007812 -1.85703125 5.31515625 -1.9765625 4.3828125 C-1.98429688 3.59648437 -1.99203125 2.81015625 -2 2 C-1.34 1.34 -0.68 0.68 0 0 Z " fill="#1EE291" transform="translate(199,178)"/>
<path d="M0 0 C4.95 0 9.9 0 15 0 C15 20.13 15 40.26 15 61 C4.44 61 -6.12 61 -17 61 C-19 53 -19 53 -18 49 C-18 49.99 -18 50.98 -18 52 C-16.35 51.34 -14.7 50.68 -13 50 C-12.835 48.7625 -12.67 47.525 -12.5 46.25 C-12.4071875 45.55390625 -12.314375 44.8578125 -12.21875 44.140625 C-11.93222643 41.69541605 -11.93222643 41.69541605 -12 38 C-11.979375 37.05125 -11.95875 36.1025 -11.9375 35.125 C-12.00026402 31.98679911 -12.41346536 29.07930687 -13 26 C-12.34 26 -11.68 26 -11 26 C-10.01 28.97 -9.02 31.94 -8 35 C-5.69 41.6 -3.38 48.2 -1 55 C-0.67 36.85 -0.34 18.7 0 0 Z M1 1 C1 20.47 1 39.94 1 60 C5.29 60 9.58 60 14 60 C14 40.53 14 21.06 14 1 C9.71 1 5.42 1 1 1 Z " fill="#22DF91" transform="translate(326,156)"/>
<path d="M0 0 C1.74796875 0.11794922 1.74796875 0.11794922 3.53125 0.23828125 C6.5 0.6875 6.5 0.6875 8.5 2.6875 C8.5 4.0075 8.5 5.3275 8.5 6.6875 C7.84 6.6875 7.18 6.6875 6.5 6.6875 C6.396875 7.285625 6.29375 7.88375 6.1875 8.5 C5.39363064 11.02594795 4.54427591 12.03635407 2.5 13.6875 C1.51 14.0175 0.52 14.3475 -0.5 14.6875 C-0.83 15.3475 -1.16 16.0075 -1.5 16.6875 C-0.84 17.0175 -0.18 17.3475 0.5 17.6875 C-4.22807959 20.52434776 -8.08809719 21.65391122 -13.5 20.6875 C-17 19 -17 19 -19.5 16.6875 C-20.0625 14.125 -20.0625 14.125 -19.5 11.6875 C-18 9.875 -18 9.875 -16.5 8.6875 C-17.16 8.6875 -17.82 8.6875 -18.5 8.6875 C-18.17 6.3775 -17.84 4.0675 -17.5 1.6875 C-14.53 2.0175 -11.56 2.3475 -8.5 2.6875 C-8.5 2.0275 -8.5 1.3675 -8.5 0.6875 C-5.5911057 -0.76694715 -3.22143174 -0.23875656 0 0 Z " fill="#21E191" transform="translate(192.5,195.3125)"/>
<path d="M0 0 C2.97 0.495 2.97 0.495 6 1 C5.67 2.98 5.34 4.96 5 7 C9.29 7 13.58 7 18 7 C18.33 5.68 18.66 4.36 19 3 C20 2 20 2 23.375 1.8125 C27 2 27 2 30 4 C29.625 6.4375 29.625 6.4375 29 9 C26.51927405 10.24036297 24.22003148 10.26882433 21.48901367 10.49487305 C13.6815325 11.18585484 9.57732714 12.1632623 4 18 C1 17 1 17 -0.65234375 15.0703125 C-3.96914339 12.14534776 -7.29767609 11.70277173 -11.5625 10.875 C-19.65353261 9.23097826 -19.65353261 9.23097826 -23 7 C-22.67 5.35 -22.34 3.7 -22 2 C-14.5340751 1.63282337 -14.5340751 1.63282337 -12 3.375 C-11 5 -11 5 -11 7 C-6.71 7 -2.42 7 2 7 C1.34 4.69 0.68 2.38 0 0 Z " fill="#0B2C26" transform="translate(167,181)"/>
<path d="M0 0 C1.051875 -0.01675781 2.10375 -0.03351563 3.1875 -0.05078125 C6.34816608 0.35747145 7.02804702 0.93150415 9 3.3125 C11.10332891 4.02697643 11.10332891 4.02697643 13 4.3125 C13.33 5.6325 13.66 6.9525 14 8.3125 C14.66 8.3125 15.32 8.3125 16 8.3125 C16 9.6325 16 10.9525 16 12.3125 C15.34 12.9725 14.68 13.6325 14 14.3125 C13.855625 15.116875 13.71125 15.92125 13.5625 16.75 C12.92754891 19.64255497 12.35319686 20.56939121 10 22.3125 C7.8125 23 7.8125 23 6 23.3125 C6 23.9725 6 24.6325 6 25.3125 C2.37 25.3125 -1.26 25.3125 -5 25.3125 C-4.01 24.3225 -3.02 23.3325 -2 22.3125 C-0.68 22.3125 0.64 22.3125 2 22.3125 C2 21.6525 2 20.9925 2 20.3125 C1.34 20.3125 0.68 20.3125 0 20.3125 C0 19.6525 0 18.9925 0 18.3125 C0.825 17.879375 1.65 17.44625 2.5 17 C3.325 16.443125 4.15 15.88625 5 15.3125 C5.41780879 12.68555578 5.41780879 12.68555578 5 10.3125 C0.01770224 8.39623163 -4.72684667 7.7577885 -10 7.3125 C-9.6875 4.9375 -9.6875 4.9375 -9 2.3125 C-5.55324591 0.01466394 -4.06671888 0.01495117 0 0 Z " fill="#20E291" transform="translate(152,191.6875)"/>
<path d="M0 0 C5.28 0 10.56 0 16 0 C16 0.33 16 0.66 16 1 C11.38 1 6.76 1 2 1 C1.62875 2.299375 1.2575 3.59875 0.875 4.9375 C-1.45108562 12.72483011 -4.25832609 20.3517058 -7 28 C-8.86353132 25.20470302 -9.72523712 23.12771967 -10.7265625 19.96484375 C-11.0359375 18.99095703 -11.3453125 18.01707031 -11.6640625 17.01367188 C-11.98117188 15.99853516 -12.29828125 14.98339844 -12.625 13.9375 C-12.94984375 12.91849609 -13.2746875 11.89949219 -13.609375 10.84960938 C-16 3.27092634 -16 3.27092634 -16 1 C-15.401875 1.165 -14.80375 1.33 -14.1875 1.5 C-11.88655664 2.1114124 -11.88655664 2.1114124 -9 2 C-7.3125 3.5 -7.3125 3.5 -6 5 C-5.01 4.01 -4.02 3.02 -3 2 C-2.34 2.66 -1.68 3.32 -1 4 C-0.67 2.68 -0.34 1.36 0 0 Z " fill="#0C2C28" transform="translate(240,173)"/>
<path d="M0 0 C4.95 0 9.9 0 15 0 C15 20.13 15 40.26 15 61 C4.44 61 -6.12 61 -17 61 C-16.67 60.01 -16.34 59.02 -16 58 C-16 58.66 -16 59.32 -16 60 C-9.565 59.505 -9.565 59.505 -3 59 C-3 56.69 -3 54.38 -3 52 C-2.34 52.99 -1.68 53.98 -1 55 C-0.67 36.85 -0.34 18.7 0 0 Z M1 1 C1 20.47 1 39.94 1 60 C5.29 60 9.58 60 14 60 C14 40.53 14 21.06 14 1 C9.71 1 5.42 1 1 1 Z " fill="#33AE80" transform="translate(326,156)"/>
<path d="M0 0 C2.5625 2.125 2.5625 2.125 4 5 C4 8.63075827 3.41176127 10.42048414 1.3125 13.375 C-1.73171415 15.51417751 -3.35097722 15.60817046 -7 15 C-9.375 13.5 -9.375 13.5 -11 11 C-11.6293407 7.48559179 -11.63147635 4.2629527 -10 1 C-6.72212436 -0.63893782 -3.51817423 -0.74884833 0 0 Z " fill="#23E092" transform="translate(355,203)"/>
<path d="M0 0 C2.15852414 2.15852414 2.48385305 3.1213158 3.25390625 5.9921875 C3.46853516 6.77980469 3.68316406 7.56742188 3.90429688 8.37890625 C4.12150391 9.20261719 4.33871094 10.02632812 4.5625 10.875 C4.78357422 11.69097656 5.00464844 12.50695312 5.23242188 13.34765625 C6.18906333 16.89098683 7.10979917 20.43919669 8 24 C3.38 24 -1.24 24 -6 24 C-5.36145015 18.47324097 -4.06306646 13.37632649 -2.4375 8.0625 C-2.20353516 7.28326172 -1.96957031 6.50402344 -1.72851562 5.70117188 C-1.15682579 3.79942813 -0.57904309 1.89951774 0 0 Z " fill="#052C22" transform="translate(295,170)"/>
<path d="M0 0 C2.62664903 0.0867572 5.24978082 0.19357981 7.875 0.3125 C8.62136719 0.33505859 9.36773437 0.35761719 10.13671875 0.38085938 C12.099604 0.47811945 14.05328322 0.73042294 16 1 C16.66 1.99 17.32 2.98 18 4 C17.01 4 16.02 4 15 4 C15 4.66 15 5.32 15 6 C14.07767578 6.16435547 14.07767578 6.16435547 13.13671875 6.33203125 C11.92435547 6.56986328 11.92435547 6.56986328 10.6875 6.8125 C9.48673828 7.03873047 9.48673828 7.03873047 8.26171875 7.26953125 C5.73578574 8.08533345 4.82043796 9.13876791 3 11 C2.01 11 1.02 11 0 11 C-0.12375 11.763125 -0.2475 12.52625 -0.375 13.3125 C-1 16 -1 16 -3 19 C-2.34 19 -1.68 19 -1 19 C-1 19.66 -1 20.32 -1 21 C-2.9375 20.6875 -2.9375 20.6875 -5 20 C-6.27469402 16.17591794 -5.25420387 14.76261161 -4 11 C-3.83201531 7.74955291 -3.83201531 7.74955291 -4 5 C-2.35 4.34 -0.7 3.68 1 3 C0.67 2.01 0.34 1.02 0 0 Z " fill="#1FE18F" transform="translate(139,174)"/>
<path d="M0 0 C4.58419704 1.13590723 8.21138349 3.41586434 10.89013672 7.33105469 C12.14240226 10.70162552 12.01153869 13.97117184 11.9609375 17.515625 C11.9581076 18.26463074 11.95527771 19.01363647 11.95236206 19.78533936 C11.9411976 22.16955776 11.91610031 24.55339579 11.890625 26.9375 C11.88059035 28.55728623 11.87146535 30.17707836 11.86328125 31.796875 C11.84127055 35.76056246 11.80676675 39.72396681 11.765625 43.6875 C7.145625 43.6875 2.525625 43.6875 -2.234375 43.6875 C-1.904375 42.0375 -1.574375 40.3875 -1.234375 38.6875 C-0.574375 38.6875 0.085625 38.6875 0.765625 38.6875 C0.765625 39.6775 0.765625 40.6675 0.765625 41.6875 C5.220625 41.1925 5.220625 41.1925 9.765625 40.6875 C9.765625 30.7875 9.765625 20.8875 9.765625 10.6875 C8.775625 10.6875 7.785625 10.6875 6.765625 10.6875 C6.518125 9.718125 6.270625 8.74875 6.015625 7.75 C5.603125 6.739375 5.190625 5.72875 4.765625 4.6875 C2.73318952 3.71872943 2.73318952 3.71872943 0.765625 3.6875 C0.765625 3.0275 0.765625 2.3675 0.765625 1.6875 C-5.504375 1.6875 -11.774375 1.6875 -18.234375 1.6875 C-13.00994646 -1.79545236 -6.08608479 -0.85120067 0 0 Z " fill="#36C68E" transform="translate(199.234375,173.3125)"/>
<path d="M0 0 C6.27 0 12.54 0 19 0 C19 0.99 19 1.98 19 3 C18.03578125 2.98839844 17.0715625 2.97679687 16.078125 2.96484375 C14.81484375 2.95582031 13.5515625 2.94679687 12.25 2.9375 C10.37054688 2.92009766 10.37054688 2.92009766 8.453125 2.90234375 C4.59979878 2.93023996 4.59979878 2.93023996 1 4 C-1.2802821 7.12642452 -1.21494476 9.97231988 -1.125 13.75 C-1.09792969 15.22726563 -1.09792969 15.22726563 -1.0703125 16.734375 C-1.04710937 17.48203125 -1.02390625 18.2296875 -1 19 C-2.32 18.67 -3.64 18.34 -5 18 C-4.938125 19.010625 -4.87625 20.02125 -4.8125 21.0625 C-5.02642827 25.55499372 -6.04613532 28.01085961 -8 32 C-7.34 32.33 -6.68 32.66 -6 33 C-7.485 33.495 -7.485 33.495 -9 34 C-9.061875 34.721875 -9.12375 35.44375 -9.1875 36.1875 C-10.24456647 39.84657625 -12.20550071 41.49211602 -15 44 C-13.39415163 38.33383583 -11.5853851 32.78171667 -9.5625 27.25 C-7.39496363 21.28764771 -5.61127929 15.28873927 -3.9921875 9.15625 C-3 6 -3 6 0 0 Z " fill="#2DC489" transform="translate(286,156)"/>
<path d="M0 0 C6.27 1.32 12.54 2.64 19 4 C19.33 5.32 19.66 6.64 20 8 C17.43922235 10.56077765 15.57117397 10.31451364 12.0703125 10.4609375 C10 10 10 10 8.1640625 8.0234375 C5.23484597 5.28456717 3.20029511 5.4080118 -0.75 5.25 C-2.50570312 5.16492188 -2.50570312 5.16492188 -4.296875 5.078125 C-5.18890625 5.05234375 -6.0809375 5.0265625 -7 5 C-6.525625 6.093125 -6.05125 7.18625 -5.5625 8.3125 C-4.59812191 10.53476255 -3.76833172 12.69500485 -3 15 C-3.99 15 -4.98 15 -6 15 C-9.17611823 11.11807772 -9.46360285 7.91419022 -9 3 C-8.34 2.34 -7.68 1.68 -7 1 C-6.67 1.99 -6.34 2.98 -6 4 C-2.535 3.505 -2.535 3.505 1 3 C0.67 2.01 0.34 1.02 0 0 Z " fill="#053729" transform="translate(136,198)"/>
<path d="M0 0 C0.33 0 0.66 0 1 0 C1.33 17.16 1.66 34.32 2 52 C2.33 52 2.66 52 3 52 C3.28875 53.11375 3.5775 54.2275 3.875 55.375 C4.69241329 59.00291092 4.69241329 59.00291092 7 61 C9.9149255 61.5838196 9.9149255 61.5838196 13 61 C15.59121904 58.9901643 15.59121904 58.9901643 17 56 C16.85384044 52.27293127 16.65788293 50.65788293 14 48 C11.67724823 47.59952556 9.34260643 47.2602896 7 47 C7 46.67 7 46.34 7 46 C14.17241379 44.56551724 14.17241379 44.56551724 17.5 46.3125 C19.78310028 50.40305467 19.46701454 54.41407029 19 59 C18 62 18 62 16 63 C14.12620395 63.07033769 12.24998898 63.0843022 10.375 63.0625 C9.37210937 63.05347656 8.36921875 63.04445312 7.3359375 63.03515625 C6.56507813 63.02355469 5.79421875 63.01195312 5 63 C5 62.34 5 61.68 5 61 C3.35 60.67 1.7 60.34 0 60 C0 40.2 0 20.4 0 0 Z " fill="#023D27" transform="translate(341,156)"/>
<path d="M0 0 C0.33 0.66 0.66 1.32 1 2 C0.525625 3.11375 0.05125 4.2275 -0.4375 5.375 C-2.81741537 11.46315559 -3.51781977 18.38534032 -0.9453125 24.51171875 C1.38997032 28.41734309 1.38997032 28.41734309 5 31 C6.47668337 31.0952699 7.95775457 31.12985959 9.4375 31.125 C10.21996094 31.12757813 11.00242187 31.13015625 11.80859375 31.1328125 C14.17895347 31.08382548 14.17895347 31.08382548 17 30 C17 29.01 17 28.02 17 27 C17.99 27 18.98 27 20 27 C19.979375 26.030625 19.95875 25.06125 19.9375 24.0625 C20 21 20 21 21 20 C21.07313567 17.46950598 21.09247527 14.96695163 21.0625 12.4375 C21.05798828 11.72658203 21.05347656 11.01566406 21.04882812 10.28320312 C21.03700864 8.52209987 21.01907263 6.76103964 21 5 C23.49398079 8.74097119 23.29925803 10.84995522 23.3125 15.3125 C23.32925781 16.60800781 23.34601563 17.90351563 23.36328125 19.23828125 C22.79378774 25.13529468 20.50951696 29.19509506 16 33 C11.94048223 34.35317259 8.24455771 34.53804253 4 34 C-0.32298892 31.46259346 -3.04332559 28.04518897 -4.5546875 23.234375 C-5.91449176 16.41149748 -6.31166576 9.20648633 -2.5 3.1875 C-1.6951864 2.10323723 -0.87208589 1.03093011 0 0 Z " fill="#034129" transform="translate(62,171)"/>
<path d="M0 0 C4.62 0 9.24 0 14 0 C14.33 0.99 14.66 1.98 15 3 C15.66 2.67 16.32 2.34 17 2 C17 3.98 17 5.96 17 8 C15.68 8 14.36 8 13 8 C13 7.01 13 6.02 13 5 C12.34 5 11.68 5 11 5 C11.33 3.68 11.66 2.36 12 1 C8.37 1 4.74 1 1 1 C1 14.2 1 27.4 1 41 C4.96 41 8.92 41 13 41 C13 32.75 13 24.5 13 16 C13.66 16 14.32 16 15 16 C14.67 24.91 14.34 33.82 14 43 C9.38 43 4.76 43 0 43 C0 28.81 0 14.62 0 0 Z " fill="#3AC592" transform="translate(102,174)"/>
<path d="M0 0 C0.66 0.99 1.32 1.98 2 3 C5.61652425 3.42104143 9.17327132 3.44016298 12.8125 3.49609375 C14.3903125 3.74552734 14.3903125 3.74552734 16 4 C17.9118142 6.82437056 18.24636526 9.13244534 18.22705078 12.49316406 C18.22689972 13.37377502 18.22674866 14.25438599 18.22659302 15.16168213 C18.21627045 16.10348328 18.20594788 17.04528442 18.1953125 18.015625 C18.1924826 18.98659119 18.18965271 19.95755737 18.18673706 20.95794678 C18.17555292 24.05542385 18.15045142 27.1526105 18.125 30.25 C18.11496792 32.35155832 18.10584247 34.45312118 18.09765625 36.5546875 C18.07561934 41.70323669 18.04110145 46.85156913 18 52 C19.13501953 51.50886719 19.13501953 51.50886719 20.29296875 51.0078125 C23.3561478 49.86740818 25.75774009 49.84919721 29 50 C27 52 27 52 24.0625 52.875 C20.64902171 54.1289308 19.67505477 54.82621201 18 58 C17.27954633 61.15118325 17.27954633 61.15118325 17 64 C16.67 64 16.34 64 16 64 C16 44.86 16 25.72 16 6 C10.39 6 4.78 6 -1 6 C-0.67 4.02 -0.34 2.04 0 0 Z " fill="#092821" transform="translate(326,150)"/>
<path d="M0 0 C0.99 0.33 1.98 0.66 3 1 C2.979375 1.78375 2.95875 2.5675 2.9375 3.375 C2.81315937 5.98114961 2.81315937 5.98114961 4 8 C-0.76307437 8.95261487 -5.1666528 9.08333357 -10 9 C-10.226875 9.804375 -10.45375 10.60875 -10.6875 11.4375 C-12 14 -12 14 -14.375 14.9375 C-17.23612509 15.00562203 -18.60570412 14.50751963 -21 13 C-21.33 15.31 -21.66 17.62 -22 20 C-21.34 20 -20.68 20 -20 20 C-20.33 20.99 -20.66 21.98 -21 23 C-21.66 23 -22.32 23 -23 23 C-23.33 23.99 -23.66 24.98 -24 26 C-25.90003553 22.19992894 -25.70790761 18.1210336 -25 14 C-23.32788694 10.78640771 -21.30535062 9.40810901 -18 8 C-13.85993509 7.06905305 -9.67238403 6.66815077 -5.44921875 6.32421875 C-2.1454033 6.22334571 -2.1454033 6.22334571 0 5 C0 3.35 0 1.7 0 0 Z " fill="#26DD8E" transform="translate(196,184)"/>
<path d="M0 0 C2.6875 0.875 2.6875 0.875 5 2 C4 4 4 4 2 6 C1.3574765 8.06874034 1.3574765 8.06874034 1 10 C3.91517292 8.92598892 5.77810176 8.22189824 8 6 C11.5 5.6875 11.5 5.6875 15 6 C15.99 7.485 15.99 7.485 17 9 C14.03 9 11.06 9 8 9 C7.34 10.32 6.68 11.64 6 13 C1.71 13 -2.58 13 -7 13 C-6.67 10.36 -6.34 7.72 -6 5 C-5.01 4.67 -4.02 4.34 -3 4 C-3 3.34 -3 2.68 -3 2 C-2.01 1.34 -1.02 0.68 0 0 Z " fill="#2CCD8C" transform="translate(179,175)"/>
<path d="M0 0 C0.61875 0.86625 0.61875 0.86625 1.25 1.75 C3.50409468 4.64812173 5.6837433 7.34187165 9 9 C11.37123246 9.23029956 13.74741943 9.41119942 16.125 9.5625 C17.40632813 9.64628906 18.68765625 9.73007813 20.0078125 9.81640625 C20.99523437 9.87699219 21.98265625 9.93757812 23 10 C23 9.34 23 8.68 23 8 C25 6.375 25 6.375 27 5 C27.66 5.33 28.32 5.66 29 6 C28.67 7.32 28.34 8.64 28 10 C32.62 10 37.24 10 42 10 C42 10.66 42 11.32 42 12 C37.71 12 33.42 12 29 12 C28.67 12.66 28.34 13.32 28 14 C28 13.01 28 12.02 28 11 C26.96166016 11.24363281 26.96166016 11.24363281 25.90234375 11.4921875 C22.73420757 12.04650473 19.77773771 12.13257418 16.5625 12.125 C15.47066406 12.12757813 14.37882813 12.13015625 13.25390625 12.1328125 C10.08497273 12.00346827 7.12054764 11.54083769 4 11 C2.68 11 1.36 11 0 11 C0.33 9.02 0.66 7.04 1 5 C0.34 4.67 -0.32 4.34 -1 4 C-0.67 2.68 -0.34 1.36 0 0 Z " fill="#033624" transform="translate(169,207)"/>
<path d="M0 0 C0.33 0 0.66 0 1 0 C1 18.81 1 37.62 1 57 C-1.43237153 53.3514427 -2.68031191 49.67882421 -4.125 45.5625 C-4.40214844 44.79873047 -4.67929687 44.03496094 -4.96484375 43.24804688 C-5.22652344 42.50748047 -5.48820312 41.76691406 -5.7578125 41.00390625 C-6.11576904 39.99565796 -6.11576904 39.99565796 -6.48095703 38.96704102 C-7 37 -7 37 -7 33 C-6.34 33 -5.68 33 -5 33 C-5 34.32 -5 35.64 -5 37 C-4.34 37 -3.68 37 -3 37 C-2.87625 37.639375 -2.7525 38.27875 -2.625 38.9375 C-2.41875 39.618125 -2.2125 40.29875 -2 41 C-1.34 41.33 -0.68 41.66 0 42 C0 28.14 0 14.28 0 0 Z " fill="#052F20" transform="translate(325,157)"/>
<path d="M0 0 C0.36723101 6.48774783 0.36723101 6.48774783 -1.2265625 8.7109375 C-3.47997297 10.34887903 -4.80004098 10.37166304 -7.5625 10.3125 C-8.34753906 10.30863281 -9.13257813 10.30476562 -9.94140625 10.30078125 C-12 10 -12 10 -14 8 C-13.875 5.5 -13.875 5.5 -13 3 C-9.41702923 0.24386864 -4.40722146 0 0 0 Z " fill="#043B27" transform="translate(197,198)"/>
<path d="M0 0 C16.29704207 -0.62591769 16.29704207 -0.62591769 23 3 C23.33 3.66 23.66 4.32 24 5 C24.66 5 25.32 5 26 5 C26.70180531 6.4096347 27.38593958 7.82807641 28.0625 9.25 C28.44535156 10.03890625 28.82820313 10.8278125 29.22265625 11.640625 C30.13847603 14.42029911 29.70405243 15.21766221 29 18 C28.85321886 20.09647443 28.75294862 22.19641323 28.68359375 24.296875 C28.64169922 25.50214844 28.59980469 26.70742187 28.55664062 27.94921875 C28.51732422 29.20347656 28.47800781 30.45773438 28.4375 31.75 C28.39431641 33.01972656 28.35113281 34.28945312 28.30664062 35.59765625 C28.20060278 38.73166365 28.09853942 41.86574933 28 45 C27.67 45 27.34 45 27 45 C26.98541748 44.02651611 26.97083496 43.05303223 26.95581055 42.05004883 C26.89766704 38.42484524 26.82043623 34.8002524 26.73754883 31.17553711 C26.70437468 29.60923199 26.67631942 28.04280949 26.65356445 26.47631836 C26.61987884 24.21938237 26.56755951 21.96351474 26.51171875 19.70703125 C26.50532883 19.01100296 26.4989389 18.31497467 26.49235535 17.59785461 C26.36189404 13.24583673 25.6223259 10.48682894 23 7 C18.69830998 3.44851195 14.04461984 3.27337298 8.6875 2.8125 C7.85154297 2.73064453 7.01558594 2.64878906 6.15429688 2.56445312 C4.10390612 2.36527231 2.05206438 2.18112718 0 2 C0 1.34 0 0.68 0 0 Z " fill="#023A25" transform="translate(184,171)"/>
<path d="M0 0 C6.6 0.33 13.2 0.66 20 1 C20 1.33 20 1.66 20 2 C14.06 2 8.12 2 2 2 C1.5875 3.39992187 1.175 4.79984375 0.75 6.2421875 C-1.05074762 12.24256603 -3.01231605 18.18436564 -5 24.125 C-5.34289062 25.15753906 -5.68578125 26.19007813 -6.0390625 27.25390625 C-7.91741853 32.88180503 -9.87456968 38.46059722 -12 44 C-13.03323406 40.84159635 -12.96894966 39.06807588 -11.85546875 35.953125 C-11.59056641 35.19 -11.32566406 34.426875 -11.05273438 33.640625 C-10.76720703 32.85171875 -10.48167969 32.0628125 -10.1875 31.25 C-8.16303696 25.53386906 -6.43263469 19.89319596 -5 14 C-4.53313141 12.6134003 -4.04134741 11.23425273 -3.5 9.875 C-2.20755026 6.60173054 -1.12010468 3.36031404 0 0 Z " fill="#033725" transform="translate(284,154)"/>
<path d="M0 0 C3 1 3 1 4 3 C4.08705146 5.98970289 4.11550145 8.95584955 4.09765625 11.9453125 C4.0962413 12.8303244 4.09482635 13.7153363 4.09336853 14.62716675 C4.0877614 17.45981191 4.07520771 20.29237864 4.0625 23.125 C4.05748592 25.04296761 4.05292285 26.96093646 4.04882812 28.87890625 C4.03778966 33.58596782 4.02052025 38.2929706 4 43 C3.67 43 3.34 43 3 43 C2.67 38.38 2.34 33.76 2 29 C1.34 29 0.68 29 0 29 C-0.66 30.98 -1.32 32.96 -2 35 C-2.66 34.67 -3.32 34.34 -4 34 C-3.6390625 33.23558594 -3.278125 32.47117188 -2.90625 31.68359375 C1.74591306 20.94485068 2.15864188 11.58942975 0 0 Z " fill="#033521" transform="translate(98,173)"/>
<path d="M0 0 C0.66 0 1.32 0 2 0 C3.81242323 4.0188515 5.33501617 7.61110675 6 12 C5.01 12.33 4.02 12.66 3 13 C3 13.66 3 14.32 3 15 C0.69 15.33 -1.62 15.66 -4 16 C-4 15.01 -4 14.02 -4 13 C-4.99 13.495 -4.99 13.495 -6 14 C-6.33 12.68 -6.66 11.36 -7 10 C-6.34 10 -5.68 10 -5 10 C-5 9.34 -5 8.68 -5 8 C-3.68 8.33 -2.36 8.66 -1 9 C-1.020625 7.88625 -1.04125 6.7725 -1.0625 5.625 C-1 2 -1 2 0 0 Z " fill="#152028" transform="translate(218,206)"/>
<path d="M0 0 C0 1.32 0 2.64 0 4 C-0.66 4 -1.32 4 -2 4 C-2.103125 4.598125 -2.20625 5.19625 -2.3125 5.8125 C-3.12129706 8.38594519 -3.92295164 9.30272798 -6 11 C-10.92069598 12.37300319 -15.44156632 12.49978621 -20 10 C-20.36666667 4.5 -20.36666667 4.5 -18.625 2.125 C-17 1 -17 1 -15 1 C-15 0.34 -15 -0.32 -15 -1 C-13.25181409 -1.22304441 -11.50129677 -1.4278645 -9.75 -1.625 C-8.77546875 -1.74101562 -7.8009375 -1.85703125 -6.796875 -1.9765625 C-3.86570607 -2.00112537 -2.45471036 -1.5312717 0 0 Z M-10.4375 0.875 C-11.21996094 1.03742188 -12.00242188 1.19984375 -12.80859375 1.3671875 C-15.26102542 1.95584375 -15.26102542 1.95584375 -18 4 C-17.62095792 7.29075996 -17.62095792 7.29075996 -16 10 C-13.96729438 10.23820921 -13.96729438 10.23820921 -11.625 10.25 C-10.83351562 10.27578125 -10.04203125 10.3015625 -9.2265625 10.328125 C-6.94231924 10.16649422 -6.94231924 10.16649422 -5.22265625 8.71484375 C-3.26420966 5.96801291 -3.81554488 3.25870715 -4 0 C-6.26355949 0 -8.22327177 0.40234044 -10.4375 0.875 Z " fill="#34C990" transform="translate(201,198)"/>
<path d="M0 0 C0.495 0.99 0.495 0.99 1 2 C1.66 2.33 2.32 2.66 3 3 C3.625 5.0625 3.625 5.0625 4 7 C1.15363263 6.07327574 -1.64388259 5.15620207 -4.38671875 3.953125 C-13.74528444 0.53983647 -22.64561569 4.16104296 -31.23828125 8 C-33.49309495 9.27989425 -34.05375936 10.63439839 -35 13 C-35.33 12.01 -35.66 11.02 -36 10 C-35.52949219 9.60167969 -35.05898438 9.20335937 -34.57421875 8.79296875 C-33.95160156 8.26316406 -33.32898437 7.73335937 -32.6875 7.1875 C-32.07261719 6.66542969 -31.45773438 6.14335937 -30.82421875 5.60546875 C-29.00105846 4.0975213 -29.00105846 4.0975213 -27.75976562 2.43164062 C-25.22428586 0.36892513 -23.25589495 0.56721695 -20.01953125 0.48828125 C-18.85615234 0.45283203 -17.69277344 0.41738281 -16.49414062 0.38085938 C-15.27919922 0.35830078 -14.06425781 0.33574219 -12.8125 0.3125 C-10.97268555 0.26125977 -10.97268555 0.26125977 -9.09570312 0.20898438 C-6.06389322 0.1264059 -3.03237621 0.05728631 0 0 Z " fill="#053628" transform="translate(84,153)"/>
<path d="M0 0 C6.02227013 1.96941708 8.70466934 5.76823793 12 11 C15.29517223 19.30956476 15.6552066 30.54853837 12.5 38.9375 C12.005 39.948125 11.51 40.95875 11 42 C10.34 41.67 9.68 41.34 9 41 C9 40.34 9 39.68 9 39 C9.66 39 10.32 39 11 39 C12.37681259 32.63224179 13.08150964 25.24452893 11 19 C11.4375 16.8125 11.4375 16.8125 12 15 C11.01 15 10.02 15 9 15 C8.67 13.35 8.34 11.7 8 10 C6.02 10.99 6.02 10.99 4 12 C4.66 9.69 5.32 7.38 6 5 C5.38125 4.690625 4.7625 4.38125 4.125 4.0625 C2.75 3.375 1.375 2.6875 0 2 C0 1.34 0 0.68 0 0 Z " fill="#34CA90" transform="translate(86,160)"/>
<path d="M0 0 C0.66 0 1.32 0 2 0 C1.67 3.3 1.34 6.6 1 10 C4.3 10.33 7.6 10.66 11 11 C11 9.02 11 7.04 11 5 C11.99 4.67 12.98 4.34 14 4 C13.51421457 7.12290635 13.0013988 9.99580359 12 13 C7.05 13 2.1 13 -3 13 C-2.52060632 8.28596212 -2.03165952 4.33420699 0 0 Z " fill="#37C78F" transform="translate(269,204)"/>
<path d="M0 0 C-1.65 0.33 -3.3 0.66 -5 1 C-5 1.99 -5 2.98 -5 4 C-4.01 4 -3.02 4 -2 4 C-2 4.66 -2 5.32 -2 6 C-3.65 6.66 -5.3 7.32 -7 8 C-2.545 8.99 -2.545 8.99 2 10 C2 10.33 2 10.66 2 11 C-1.96 11 -5.92 11 -10 11 C-10 7.37 -10 3.74 -10 0 C-2.25 -1.125 -2.25 -1.125 0 0 Z " fill="#30C78B" transform="translate(224,223)"/>
<path d="M0 0 C7.59 0 15.18 0 23 0 C25.25 7.875 25.25 7.875 25 12 C21.70814152 9.42376293 21.56008124 7.01300925 21 3 C17.89614789 2.88386796 14.79285338 2.81277971 11.6875 2.75 C10.80642578 2.71648437 9.92535156 2.68296875 9.01757812 2.6484375 C3.95037981 2.39058053 3.95037981 2.39058053 -0.10546875 5.015625 C-0.40066406 5.67046875 -0.69585937 6.3253125 -1 7 C-0.67 4.69 -0.34 2.38 0 0 Z " fill="#012C23" transform="translate(284,205)"/>
<path d="M0 0 C1 2 1 2 0.47094727 3.97119141 C0.02319946 5.1494751 0.02319946 5.1494751 -0.43359375 6.3515625 C-0.75263672 7.20234375 -1.07167969 8.053125 -1.40039062 8.9296875 C-1.74263672 9.81914062 -2.08488281 10.70859375 -2.4375 11.625 C-2.94506836 12.97078125 -2.94506836 12.97078125 -3.46289062 14.34375 C-4.30182988 16.56516661 -5.1477775 18.78365271 -6 21 C-8.24808254 17.62787619 -9.05160443 14.7125039 -10.125 10.8125 C-10.30675781 10.15830078 -10.48851562 9.50410156 -10.67578125 8.83007812 C-11.12199044 7.22137657 -11.56164215 5.61085869 -12 4 C-11.34 4 -10.68 4 -10 4 C-9.01 5.98 -8.02 7.96 -7 10 C-4.44140308 8.72070154 -4.13851266 7.55728932 -2.9375 5 C-1.08474576 1.08474576 -1.08474576 1.08474576 0 0 Z " fill="#063525" transform="translate(239,180)"/>
<path d="M0 0 C-1.12432075 2.2486415 -2.22601514 4.33902271 -3.625 6.4375 C-6.09303011 12.83194165 -6.32602803 20.74029732 -3.5625 27.125 C-3.046875 28.07375 -2.53125 29.0225 -2 30 C-1.67 30.99 -1.34 31.98 -1 33 C-1.99 33.495 -1.99 33.495 -3 34 C-5.125 33.0625 -5.125 33.0625 -7 32 C-7.08796382 28.33348753 -7.14071247 24.66725082 -7.1875 21 C-7.21263672 19.97003906 -7.23777344 18.94007813 -7.26367188 17.87890625 C-7.32439973 11.5227239 -6.7988977 6.74688922 -4 1 C-2 0 -2 0 0 0 Z " fill="#35C48E" transform="translate(63,169)"/>
<path d="M0 0 C0.66 0 1.32 0 2 0 C1.835 1.11375 1.67 2.2275 1.5 3.375 C0.53108743 11.32289152 0.74513015 18.30691463 3 26 C3.33882873 27.33194744 3.67359028 28.66495484 4 30 C2.02 30.33 0.04 30.66 -2 31 C-1.86082451 26.77058671 -1.71249779 22.54154222 -1.5625 18.3125 C-1.52318359 17.11431641 -1.48386719 15.91613281 -1.44335938 14.68164062 C-1.40146484 13.52470703 -1.35957031 12.36777344 -1.31640625 11.17578125 C-1.27974854 10.11270752 -1.24309082 9.04963379 -1.20532227 7.9543457 C-1.0151475 5.21795468 -0.6068493 2.67143268 0 0 Z " fill="#083128" transform="translate(42,174)"/>
<path d="M0 0 C1.24716797 0.25136719 1.24716797 0.25136719 2.51953125 0.5078125 C3.60621094 0.71148437 4.69289062 0.91515625 5.8125 1.125 C6.89144531 1.33382812 7.97039062 1.54265625 9.08203125 1.7578125 C12.19282519 2.32039897 12.19282519 2.32039897 15 0 C18.1875 -0.125 18.1875 -0.125 21 0 C21 0.66 21 1.32 21 2 C20.34 2.66 19.68 3.32 19 4 C20.32 4.66 21.64 5.32 23 6 C14.93870354 6.49863689 8.13625808 6.0992342 1 2 C0.67 1.34 0.34 0.68 0 0 Z " fill="#2BCA88" transform="translate(133,212)"/>
<path d="M0 0 C5.71693634 0.11602638 11.1515021 1.77992059 16.625 3.3125 C16.625 3.9725 16.625 4.6325 16.625 5.3125 C18.605 5.3125 20.585 5.3125 22.625 5.3125 C20.975 6.6325 19.325 7.9525 17.625 9.3125 C16.89410156 8.80589844 16.89410156 8.80589844 16.1484375 8.2890625 C9.29452075 3.97732578 2.59750786 3.0723265 -5.375 2.3125 C-3.375 0.3125 -3.375 0.3125 0 0 Z " fill="#073529" transform="translate(149.375,170.6875)"/>
<path d="M0 0 C0.33 0.99 0.66 1.98 1 3 C2.32 3 3.64 3 5 3 C5.83211276 8.03854106 6.1078534 12.8125662 6.0625 17.9375 C6.05798828 18.62134766 6.05347656 19.30519531 6.04882812 20.00976562 C6.0371956 21.67321604 6.01926694 23.3366205 6 25 C5.67 25 5.34 25 5 25 C4.96261719 24.20335937 4.92523438 23.40671875 4.88671875 22.5859375 C4.50086504 14.32286634 4.50086504 14.32286634 1 7 C-3.19376054 3.47342864 -6.57216103 2.43422712 -12 2 C-12 1.67 -12 1.34 -12 1 C-10.56274129 0.83126522 -9.12518162 0.66509263 -7.6875 0.5 C-6.88699219 0.4071875 -6.08648437 0.314375 -5.26171875 0.21875 C-3 0 -3 0 0 0 Z " fill="#31B782" transform="translate(80,166)"/>
<path d="M0 0 C0.33 0.99 0.66 1.98 1 3 C-8.31196562 8.48915868 -18.59219601 7.39389069 -29 7 C-29 6.01 -29 5.02 -29 4 C-28.02160156 4.09539062 -27.04320312 4.19078125 -26.03515625 4.2890625 C-16.56495681 5.08988566 -8.10489292 5.75185949 0 0 Z " fill="#033E28" transform="translate(89,212)"/>
<path d="M0 0 C0.33 0 0.66 0 1 0 C1.02891546 4.45831982 1.04676981 8.91661569 1.0625 13.375 C1.07087891 14.64601562 1.07925781 15.91703125 1.08789062 17.2265625 C1.09111328 18.43828125 1.09433594 19.65 1.09765625 20.8984375 C1.10289307 22.01911621 1.10812988 23.13979492 1.11352539 24.29443359 C1 27 1 27 0 29 C-2.14729141 28.71926927 -4.29283193 28.42511501 -6.4375 28.125 C-7.63246094 27.96257812 -8.82742187 27.80015625 -10.05859375 27.6328125 C-11.02925781 27.42398438 -11.99992187 27.21515625 -13 27 C-13.33 26.34 -13.66 25.68 -14 25 C-9.38 25 -4.76 25 0 25 C0 16.75 0 8.5 0 0 Z " fill="#033826" transform="translate(116,192)"/>
<path d="M0 0 C0.33 0 0.66 0 1 0 C1.02712066 1.43739513 1.04645067 2.87493863 1.0625 4.3125 C1.07410156 5.11300781 1.08570313 5.91351563 1.09765625 6.73828125 C1 9 1 9 0 12 C0.66 12 1.32 12 2 12 C2 11.34 2 10.68 2 10 C3.32 10 4.64 10 6 10 C6 10.99 6 11.98 6 13 C7.65 12.67 9.3 12.34 11 12 C11 12.66 11 13.32 11 14 C6.38 14 1.76 14 -3 14 C-2.40380045 9.13103697 -1.43023178 4.67209049 0 0 Z " fill="#0A3F2E" transform="translate(292,180)"/>
<path d="M0 0 C1.45606519 4.52092968 0.27032841 7.51648796 -1 12 C-0.34 12.33 0.32 12.66 1 13 C0.01 13.33 -0.98 13.66 -2 14 C-2.061875 14.721875 -2.12375 15.44375 -2.1875 16.1875 C-3.24456647 19.84657625 -5.20550071 21.49211602 -8 24 C-5.69356492 15.86184696 -2.89571216 7.94317882 0 0 Z " fill="#32CA8E" transform="translate(279,176)"/>
<path d="M0 0 C0.66 0.33 1.32 0.66 2 1 C2 1.66 2 2.32 2 3 C1.34 3 0.68 3 0 3 C0 3.9075 0 4.815 0 5.75 C-1.05716222 9.18577723 -1.28458108 9.67346612 -4.1875 11.4375 C-10.1858424 14.10221152 -16.67957757 12.8166838 -23 12 C-22.34 10.68 -21.68 9.36 -21 8 C-20.01 8.66 -19.02 9.32 -18 10 C-13.79074386 10.60695266 -10.06048638 10.43802698 -6.125 8.8125 C-3.16384511 6.28680906 -1.71578079 3.43156157 0 0 Z " fill="#36D094" transform="translate(84,194)"/>
<path d="M0 0 C0.99 0.33 1.98 0.66 3 1 C3 1.99 3 2.98 3 4 C-4.59 4 -12.18 4 -20 4 C-20.33 4.99 -20.66 5.98 -21 7 C-21 5.68 -21 4.36 -21 3 C-18.65147472 1.82573736 -17.26225935 1.88491827 -14.6484375 1.90234375 C-13.37226563 1.90717773 -13.37226563 1.90717773 -12.0703125 1.91210938 C-11.18085938 1.92048828 -10.29140625 1.92886719 -9.375 1.9375 C-8.4778125 1.94201172 -7.580625 1.94652344 -6.65625 1.95117188 C-4.43743352 1.96297409 -2.21874982 1.97943845 0 2 C0 1.34 0 0.68 0 0 Z " fill="#34D292" transform="translate(304,201)"/>
<path d="M0 0 C3.625 0.1875 3.625 0.1875 6.625 2.1875 C6.25 4.625 6.25 4.625 5.625 7.1875 C2.66835481 8.6658226 -0.11729737 8.24782783 -3.375 8.1875 C-3.375 7.8575 -3.375 7.5275 -3.375 7.1875 C-1.395 6.8575 0.585 6.5275 2.625 6.1875 C2.625 5.1975 2.625 4.2075 2.625 3.1875 C0.975 2.8575 -0.675 2.5275 -2.375 2.1875 C-1.385 2.8475 -0.395 3.5075 0.625 4.1875 C-0.375 5.1875 -0.375 5.1875 -2.9375 5.25 C-4.1440625 5.2190625 -4.1440625 5.2190625 -5.375 5.1875 C-4.25703267 0.23650181 -4.25703267 0.23650181 0 0 Z " fill="#033F2A" transform="translate(190.375,182.8125)"/>
<path d="M0 0 C0.33 0 0.66 0 1 0 C1 1.65 1 3.3 1 5 C1.66 5 2.32 5 3 5 C3.33 5.66 3.66 6.32 4 7 C4.66 7 5.32 7 6 7 C6.33 5.35 6.66 3.7 7 2 C8.13643966 5.40931897 7.86747764 6.00335456 6.5625 9.1875 C6.27503906 9.90292969 5.98757812 10.61835938 5.69140625 11.35546875 C5.46324219 11.89816406 5.23507813 12.44085938 5 13 C4.34 13 3.68 13 3 13 C2.67 13.66 2.34 14.32 2 15 C1.46467177 13.44240657 0.94734622 11.87861955 0.4375 10.3125 C0.14746094 9.44238281 -0.14257812 8.57226562 -0.44140625 7.67578125 C-1.05141961 4.75368926 -0.77703633 2.85599447 0 0 Z " fill="#181D25" transform="translate(229,177)"/>
<path d="M0 0 C0.61875 0.86625 0.61875 0.86625 1.25 1.75 C3.50409468 4.64812173 5.6837433 7.34187165 9 9 C10.87056791 9.2275015 12.74685958 9.40962811 14.625 9.5625 C15.62789062 9.64628906 16.63078125 9.73007813 17.6640625 9.81640625 C18.82035156 9.90728516 18.82035156 9.90728516 20 10 C20 10.33 20 10.66 20 11 C13.33333333 11 6.66666667 11 0 11 C0.33 9.02 0.66 7.04 1 5 C0.34 4.67 -0.32 4.34 -1 4 C-0.67 2.68 -0.34 1.36 0 0 Z " fill="#0B4233" transform="translate(169,207)"/>
<path d="M0 0 C1.9375 0.625 1.9375 0.625 4 2 C4.6875 4.875 4.6875 4.875 5 8 C5.31674575 9.33737094 5.64270064 10.67288808 6 12 C5.34 12 4.68 12 4 12 C4 11.01 4 10.02 4 9 C2.68 9 1.36 9 0 9 C0 9.66 0 10.32 0 11 C-0.66 11 -1.32 11 -2 11 C-1.85957123 9.35369672 -1.71250671 7.70795821 -1.5625 6.0625 C-1.48128906 5.14597656 -1.40007812 4.22945312 -1.31640625 3.28515625 C-1 1 -1 1 0 0 Z " fill="#161E24" transform="translate(294,181)"/>
<path d="M0 0 C1.1446875 1.175625 1.1446875 1.175625 2.3125 2.375 C5.65521253 5.63997503 7.09736886 6.92601384 11.8125 7.3125 C15.80954638 7.23152853 18.52026775 5.98841843 22 4 C22.66 4 23.32 4 24 4 C23.67 4.99 23.34 5.98 23 7 C22.34 7 21.68 7 21 7 C21 7.66 21 8.32 21 9 C7.05108862 9.68789152 7.05108862 9.68789152 3.1875 7.3125 C0.80652603 4.79547037 0.19030575 3.42550358 0 0 Z " fill="#3DC78F" transform="translate(171,208)"/>
<path d="M0 0 C2 3 2 3 3 6 C2.34 6 1.68 6 1 6 C0.896875 6.5775 0.79375 7.155 0.6875 7.75 C-0.09792798 10.32049158 -1.30504197 11.93657284 -3 14 C-4.07010304 11.23556715 -4.16283213 9.46148633 -3.17578125 6.6640625 C-2.16488321 4.41525773 -1.11596524 2.19840363 0 0 Z M-5 14 C-4.01 14.495 -4.01 14.495 -3 15 C-3.66 15.66 -4.32 16.32 -5 17 C-5 16.01 -5 15.02 -5 14 Z " fill="#0C2C22" transform="translate(251,189)"/>
<path d="M0 0 C1.63001953 0.01353516 1.63001953 0.01353516 3.29296875 0.02734375 C4.12441406 0.03894531 4.95585937 0.05054688 5.8125 0.0625 C6.1425 0.7225 6.4725 1.3825 6.8125 2.0625 C8.83713255 2.71463292 8.83713255 2.71463292 10.8125 3.0625 C9.17080472 5.08304804 7.50338222 7.08293058 5.8125 9.0625 C5.4825 9.0625 5.1525 9.0625 4.8125 9.0625 C4.8125 6.4225 4.8125 3.7825 4.8125 1.0625 C-1.05198454 1.3180331 -4.84507571 1.72007571 -9.1875 6.0625 C-9.1875 4.4125 -9.1875 2.7625 -9.1875 1.0625 C-5.90230525 -0.03256492 -3.45086585 -0.03710608 0 0 Z " fill="#043D27" transform="translate(125.1875,172.9375)"/>
<path d="M0 0 C2.93344867 0.69460095 4.38748031 1.28441382 6.09765625 3.8125 C6.28328125 4.43125 6.46890625 5.05 6.66015625 5.6875 C4.68015625 5.0275 2.70015625 4.3675 0.66015625 3.6875 C0.66015625 3.0275 0.66015625 2.3675 0.66015625 1.6875 C-5.60984375 1.6875 -11.87984375 1.6875 -18.33984375 1.6875 C-13.07703641 -1.82103822 -6.12770377 -0.81839115 0 0 Z " fill="#3ABF8C" transform="translate(199.33984375,173.3125)"/>
<path d="M0 0 C3.19901166 3.19901166 3.87842278 6.75991234 4.3125 11.1875 C4 14 4 14 3 15.875 C-0.25313684 17.70488947 -3.31390109 17.18128355 -7 17 C-6.67 16.34 -6.34 15.68 -6 15 C-4.02 15 -2.04 15 0 15 C0 14.34 0 13.68 0 13 C0.66 12.67 1.32 12.34 2 12 C1.62095792 8.70924004 1.62095792 8.70924004 0 6 C-0.04080783 4.00041636 -0.04254356 1.99954746 0 0 Z " fill="#023B28" transform="translate(221,206)"/>
<path d="M0 0 C2.51242417 3.03794555 3.88228534 5.91438973 5.1875 9.625 C5.53167969 10.58664063 5.87585938 11.54828125 6.23046875 12.5390625 C7 15 7 15 7 17 C6.01 17 5.02 17 4 17 C3.731875 15.865625 3.46375 14.73125 3.1875 13.5625 C2.795625 12.386875 2.40375 11.21125 2 10 C1.01 9.67 0.02 9.34 -1 9 C-0.67 6.03 -0.34 3.06 0 0 Z " fill="#083C29" transform="translate(214,188)"/>
<path d="M0 0 C2.49398079 3.74097119 2.29925803 5.84995522 2.3125 10.3125 C2.32925781 11.60800781 2.34601563 12.90351563 2.36328125 14.23828125 C1.88664713 19.17375066 0.61137977 22.61881734 -3.1875 25.875 C-3.785625 26.24625 -4.38375 26.6175 -5 27 C-5.33 26.34 -5.66 25.68 -6 25 C-5.34 25 -4.68 25 -4 25 C-4 24.01 -4 23.02 -4 22 C-3.01 22 -2.02 22 -1 22 C-1.020625 21.030625 -1.04125 20.06125 -1.0625 19.0625 C-1 16 -1 16 0 15 C0.07313567 12.46950598 0.09247527 9.96695163 0.0625 7.4375 C0.05798828 6.72658203 0.05347656 6.01566406 0.04882812 5.28320312 C0.03700864 3.52209987 0.01907263 1.76103964 0 0 Z " fill="#043422" transform="translate(83,176)"/>
<path d="M0 0 C4.62 0 9.24 0 14 0 C14.33 0.99 14.66 1.98 15 3 C15.66 2.67 16.32 2.34 17 2 C17 3.98 17 5.96 17 8 C15.68 8 14.36 8 13 8 C13 7.01 13 6.02 13 5 C12.34 5 11.68 5 11 5 C11.33 3.68 11.66 2.36 12 1 C8.37 1 4.74 1 1 1 C1 2.65 1 4.3 1 6 C0.67 6 0.34 6 0 6 C0 4.02 0 2.04 0 0 Z " fill="#38CA94" transform="translate(102,174)"/>
<path d="M0 0 C0.66 0.66 1.32 1.32 2 2 C1.84809587 5.49379495 1.34677751 7.51194277 -0.6875 10.375 C-3.68200318 12.47924548 -5.41506602 12.54553343 -9 12 C-9.66 11.01 -10.32 10.02 -11 9 C-7.32431536 8.08107884 -5.83619425 8.04095144 -2 9 C-1.34 6.03 -0.68 3.06 0 0 Z " fill="#36BC89" transform="translate(357,206)"/>
<path d="M0 0 C1.5625 1.1875 1.5625 1.1875 3 3 C2.6875 5.6875 2.6875 5.6875 2 8 C-0.31 7.67 -2.62 7.34 -5 7 C-5 5.35 -5 3.7 -5 2 C-3.35 1.34 -1.7 0.68 0 0 Z " fill="#152528" transform="translate(192,200)"/>
<path d="M0 0 C1.98567708 0.09765625 3.97135417 0.1953125 5.95703125 0.29296875 C6.10398438 1.19789063 6.10398438 1.19789063 6.25390625 2.12109375 C7.16650029 6.99875157 7.83298848 10.13120263 11.95703125 13.29296875 C10.30703125 12.96296875 8.65703125 12.63296875 6.95703125 12.29296875 C6.95703125 11.63296875 6.95703125 10.97296875 6.95703125 10.29296875 C6.29703125 10.29296875 5.63703125 10.29296875 4.95703125 10.29296875 C4.62703125 7.98296875 4.29703125 5.67296875 3.95703125 3.29296875 C0.98703125 3.29296875 -1.98296875 3.29296875 -5.04296875 3.29296875 C-2.04296875 0.29296875 -2.04296875 0.29296875 0 0 Z " fill="#05452D" transform="translate(124.04296875,184.70703125)"/>
<path d="M0 0 C0.99 0.33 1.98 0.66 3 1 C2.979375 1.78375 2.95875 2.5675 2.9375 3.375 C2.81315937 5.98114961 2.81315937 5.98114961 4 8 C-0.85729645 8.97299156 -5.4500625 9.12038805 -10.375 9.0625 C-11.11105469 9.05798828 -11.84710938 9.05347656 -12.60546875 9.04882812 C-14.40368158 9.03715142 -16.20185197 9.01922011 -18 9 C-18 8.67 -18 8.34 -18 8 C-16.86820313 7.86722656 -15.73640625 7.73445312 -14.5703125 7.59765625 C-13.08851821 7.4194658 -11.60674864 7.24106971 -10.125 7.0625 C-9.37863281 6.97548828 -8.63226563 6.88847656 -7.86328125 6.79882812 C-3.8046769 6.36673937 -3.8046769 6.36673937 0 5 C0 3.35 0 1.7 0 0 Z " fill="#30BE88" transform="translate(196,184)"/>
<path d="M0 0 C4.62 0 9.24 0 14 0 C17.22265625 8.3984375 17.22265625 8.3984375 18 11 C17.67 11.66 17.34 12.32 17 13 C16.34 12.34 15.68 11.68 15 11 C15 9.68 15 8.36 15 7 C14.01 6.67 13.02 6.34 12 6 C12.33 4.35 12.66 2.7 13 1 C9.04 1 5.08 1 1 1 C0.67 1.99 0.34 2.98 0 4 C0 2.68 0 1.36 0 0 Z " fill="#31C48D" transform="translate(210,174)"/>
<path d="M0 0 C6.27 0 12.54 0 19 0 C19 0.99 19 1.98 19 3 C12.56744599 3.12086218 6.38226945 2.82351864 0 2 C0 1.34 0 0.68 0 0 Z " fill="#33B985" transform="translate(286,156)"/>
<path d="M0 0 C0.5878125 0.21269531 1.175625 0.42539063 1.78125 0.64453125 C1.21875 2.51953125 1.21875 2.51953125 -0.21875 4.64453125 C-4.64031704 6.34513396 -8.50321112 6.87455754 -13.21875 6.64453125 C-12.703125 6.41765625 -12.1875 6.19078125 -11.65625 5.95703125 C-8.8435226 4.44248573 -6.48205711 2.57288131 -4 0.5703125 C-2.21875 -0.35546875 -2.21875 -0.35546875 0 0 Z " fill="#0B2D23" transform="translate(169.21875,211.35546875)"/>
<path d="M0 0 C0.32097656 0.93585938 0.32097656 0.93585938 0.6484375 1.890625 C2.53556697 4.83585597 4.27476726 4.97087611 7.625 5.75 C8.62789062 5.99234375 9.63078125 6.2346875 10.6640625 6.484375 C11.43492187 6.65453125 12.20578125 6.8246875 13 7 C12.67 7.66 12.34 8.32 12 9 C8.37 9 4.74 9 1 9 C-1.08954032 4.82091936 -1.16552619 4.19589427 0 0 Z " fill="#2CCC8C" transform="translate(143,184)"/>
<path d="M0 0 C1 3 1 3 0.14453125 4.9375 C-4.61538462 12.30769231 -4.61538462 12.30769231 -8 14 C-8.99 13.67 -9.98 13.34 -11 13 C-10.67 12.34 -10.34 11.68 -10 11 C-8.68 11 -7.36 11 -6 11 C-5.9175 9.88625 -5.835 8.7725 -5.75 7.625 C-5.5025 6.42875 -5.255 5.2325 -5 4 C-3 2.6875 -3 2.6875 -1 2 C-0.67 1.34 -0.34 0.68 0 0 Z " fill="#36CD92" transform="translate(238,219)"/>
<path d="M0 0 C0.66 0.99 1.32 1.98 2 3 C0.88625 2.814375 -0.2275 2.62875 -1.375 2.4375 C-4.82568861 1.68319343 -4.82568861 1.68319343 -7 3 C-7.68729254 5.11846285 -7.68729254 5.11846285 -8.125 7.5625 C-8.29257812 8.38878906 -8.46015625 9.21507812 -8.6328125 10.06640625 C-8.75398438 10.70449219 -8.87515625 11.34257812 -9 12 C-9.66 11.67 -10.32 11.34 -11 11 C-11.35820896 3.71641791 -11.35820896 3.71641791 -10 1 C-6.58894344 -0.70552828 -3.78284597 -0.36027104 0 0 Z " fill="#35CB93" transform="translate(355,203)"/>
<path d="M0 0 C2.1640625 0.0234375 2.1640625 0.0234375 4.625 0.375 C5.85089844 0.54128906 5.85089844 0.54128906 7.1015625 0.7109375 C7.72804687 0.80632812 8.35453125 0.90171875 9 1 C8.67 2.32 8.34 3.64 8 5 C5.8125 5.75 5.8125 5.75 3 6 C0.1875 4.0625 0.1875 4.0625 -2 2 C-1.34 1.34 -0.68 0.68 0 0 Z " fill="#22D689" transform="translate(176,193)"/>
<path d="M0 0 C0.66 0 1.32 0 2 0 C2.19335938 0.78503906 2.38671875 1.57007813 2.5859375 2.37890625 C4.28600531 9.28814242 4.28600531 9.28814242 6.25 16.125 C7 19 7 19 6 21 C2.72000051 14.12155447 0 7.74313635 0 0 Z " fill="#38C48F" transform="translate(297,172)"/>
<path d="M0 0 C0.98226562 0.41572266 0.98226562 0.41572266 1.984375 0.83984375 C9.03389155 3.63774509 15.43526622 4.73596043 23 5 C23 5.33 23 5.66 23 6 C20.47886908 6.05447822 17.9589415 6.09389852 15.4375 6.125 C14.73302734 6.14175781 14.02855469 6.15851563 13.30273438 6.17578125 C8.48108178 6.22022044 4.57702562 5.52768004 0 4 C0 2.68 0 1.36 0 0 Z " fill="#023825" transform="translate(133,213)"/>
<path d="M0 0 C0.66 0 1.32 0 2 0 C3.92471317 5.33835539 5.39891424 10.34979382 6 16 C4.0625 15.25 4.0625 15.25 2 14 C0.97690113 10.9845507 0.72845995 7.9089938 0.4375 4.75 C0.35371094 3.85796875 0.26992188 2.9659375 0.18359375 2.046875 C0.12300781 1.37140625 0.06242187 0.6959375 0 0 Z " fill="#33C78F" transform="translate(313,182)"/>
<path d="M0 0 C0 1.65 0 3.3 0 5 C-2.01822917 4.67447917 -4.03645833 4.34895833 -6.0546875 4.0234375 C-6.69664063 4.01570312 -7.33859375 4.00796875 -8 4 C-8.66 4.66 -9.32 5.32 -10 6 C-10.33 5.01 -10.66 4.02 -11 3 C-8.89427904 -1.21144191 -4.11694326 -0.07767817 0 0 Z " fill="#2ADD95" transform="translate(129,175)"/>
<path d="M0 0 C0.99 0 1.98 0 3 0 C4.25664978 2.90600261 5 4.79604584 5 8 C0.71 8 -3.58 8 -8 8 C-8 7.67 -8 7.34 -8 7 C-4.7 6.67 -1.4 6.34 2 6 C1.01 5.67 0.02 5.34 -1 5 C-0.67 3.35 -0.34 1.7 0 0 Z " fill="#32BF8B" transform="translate(164,180)"/>
<path d="M0 0 C0.33 0 0.66 0 1 0 C1.125 5.75 1.125 5.75 0 8 C-2.31 8 -4.62 8 -7 8 C-7.33 7.01 -7.66 6.02 -8 5 C-6.35 5 -4.7 5 -3 5 C-2.690625 4.360625 -2.38125 3.72125 -2.0625 3.0625 C-1 1 -1 1 0 0 Z " fill="#19E590" transform="translate(355,207)"/>
<path d="M0 0 C0.66 0.33 1.32 0.66 2 1 C1.34 2.65 0.68 4.3 0 6 C2.97 6.495 2.97 6.495 6 7 C6 7.33 6 7.66 6 8 C2.37 8 -1.26 8 -5 8 C-5 7.34 -5 6.68 -5 6 C-4.34 6 -3.68 6 -3 6 C-2.87625 5.195625 -2.7525 4.39125 -2.625 3.5625 C-2.41875 2.716875 -2.2125 1.87125 -2 1 C-1.34 0.67 -0.68 0.34 0 0 Z " fill="#2DDB97" transform="translate(177,179)"/>
<path d="M0 0 C4.62 0 9.24 0 14 0 C13.34 1.32 12.68 2.64 12 4 C12 3.01 12 2.02 12 1 C8.37 1 4.74 1 1 1 C1.33 3.31 1.66 5.62 2 8 C1.01 8 0.02 8 -1 8 C-1.625 6.25 -1.625 6.25 -2 4 C-1.34 2.68 -0.68 1.36 0 0 Z " fill="#33CB8F" transform="translate(242,174)"/>
<path d="M0 0 C2.125 0.9375 2.125 0.9375 4 2 C3.67 3.32 3.34 4.64 3 6 C0.36 6.33 -2.28 6.66 -5 7 C-5.33 6.01 -5.66 5.02 -6 4 C-4.68 3.67 -3.36 3.34 -2 3 C-2 2.34 -2 1.68 -2 1 C-1.34 0.67 -0.68 0.34 0 0 Z " fill="#152127" transform="translate(190,184)"/>
<path d="M0 0 C0.33 0.66 0.66 1.32 1 2 C0.29075932 3.8575351 -0.42327208 5.71341394 -1.1640625 7.55859375 C-2.65691682 11.91856548 -3.29023218 16.45748594 -4 21 C-4.33 21 -4.66 21 -5 21 C-5.57650114 12.59589453 -5.59204823 6.61059987 0 0 Z " fill="#044A30" transform="translate(62,171)"/>
<path d="M0 0 C2.20914 3.31371 2.22481553 4.3446021 2.125 8.1875 C2.10695313 9.08855469 2.08890625 9.98960937 2.0703125 10.91796875 C2.03550781 11.94857422 2.03550781 11.94857422 2 13 C1.67 13 1.34 13 1 13 C0.87882812 12.37351563 0.75765625 11.74703125 0.6328125 11.1015625 C0.46523438 10.28429687 0.29765625 9.46703125 0.125 8.625 C-0.03742188 7.81289062 -0.19984375 7.00078125 -0.3671875 6.1640625 C-0.86658932 3.81326077 -0.86658932 3.81326077 -3 2 C-5.32275177 1.59952556 -7.65739357 1.2602896 -10 1 C-10 0.67 -10 0.34 -10 0 C-6.33461636 -0.94252722 -3.63170285 -1.17784957 0 0 Z " fill="#084932" transform="translate(358,202)"/>
<path d="M0 0 C7.59 0 15.18 0 23 0 C22.67 0.66 22.34 1.32 22 2 C21.44538086 1.97381592 20.89076172 1.94763184 20.31933594 1.9206543 C17.79651431 1.81645997 15.27414511 1.75161109 12.75 1.6875 C11.44095703 1.6246582 11.44095703 1.6246582 10.10546875 1.56054688 C7.63964906 1.51348925 5.42179388 1.52673084 3 2 C0.34530806 4.32141884 0.34530806 4.32141884 -1 7 C-0.67 4.69 -0.34 2.38 0 0 Z " fill="#025E3A" transform="translate(284,205)"/>
<path d="M0 0 C-0.99 0.495 -0.99 0.495 -2 1 C-2.65213292 3.02463255 -2.65213292 3.02463255 -3 5 C-3 3.68 -3 2.36 -3 1 C-6.96 1.99 -10.92 2.98 -15 4 C-15.33 3.34 -15.66 2.68 -16 2 C-15.34 2 -14.68 2 -14 2 C-14 1.34 -14 0.68 -14 0 C-12.2300132 -0.19532961 -10.45895721 -0.38098882 -8.6875 -0.5625 C-7.70136719 -0.66691406 -6.71523437 -0.77132812 -5.69921875 -0.87890625 C-3 -1 -3 -1 0 0 Z " fill="#31C289" transform="translate(200,197)"/>
<path d="M0 0 C0.66 0 1.32 0 2 0 C1.34496718 4.05819183 0.05440879 7.53971282 -1.5625 11.3125 C-2.01753906 12.38113281 -2.47257812 13.44976562 -2.94140625 14.55078125 C-3.46541016 15.76314453 -3.46541016 15.76314453 -4 17 C-4.33 17 -4.66 17 -5 17 C-5.125 11.25 -5.125 11.25 -4 9 C-3.34 9 -2.68 9 -2 9 C-1.34 6.03 -0.68 3.06 0 0 Z " fill="#043625" transform="translate(269,199)"/>
<path d="M0 0 C0.66 0 1.32 0 2 0 C1.67 1.65 1.34 3.3 1 5 C2.32 5.33 3.64 5.66 5 6 C5 6.33 5 6.66 5 7 C2.03 7 -0.94 7 -4 7 C-3.34 5.35 -2.68 3.7 -2 2 C-1.34 2 -0.68 2 0 2 C0 1.34 0 0.68 0 0 Z " fill="#1EE195" transform="translate(162,180)"/>
<path d="M0 0 C0.33 0.99 0.66 1.98 1 3 C1.99 3 2.98 3 4 3 C4 5.31 4 7.62 4 10 C6.97 10 9.94 10 13 10 C13 10.33 13 10.66 13 11 C9.7 11 6.4 11 3 11 C0 4.5 0 4.5 0 0 Z " fill="#36CE93" transform="translate(307,205)"/>
<path d="M0 0 C1.32 0.33 2.64 0.66 4 1 C3.67 3.64 3.34 6.28 3 9 C2.01 9 1.02 9 0 9 C0 6.03 0 3.06 0 0 Z " fill="#191D2A" transform="translate(213,197)"/>
<path d="M0 0 C0.33 0.99 0.66 1.98 1 3 C1.66 3.66 2.32 4.32 3 5 C2.34 5.66 1.68 6.32 1 7 C0.154375 6.360625 -0.69125 5.72125 -1.5625 5.0625 C-4.90728565 2.8033727 -7.97396992 2.32208241 -12 2 C-12 1.67 -12 1.34 -12 1 C-10.56274129 0.83126522 -9.12518162 0.66509263 -7.6875 0.5 C-6.88699219 0.4071875 -6.08648437 0.314375 -5.26171875 0.21875 C-3 0 -3 0 0 0 Z " fill="#2CC78B" transform="translate(80,166)"/>
<path d="M0 0 C1.9955516 3.99110319 2.19546065 5.69986566 2 10 C1.67 9.34 1.34 8.68 1 8 C0.34 8 -0.32 8 -1 8 C-1.66 9.98 -2.32 11.96 -3 14 C-3.66 13.67 -4.32 13.34 -5 13 C-3.35 8.71 -1.7 4.42 0 0 Z " fill="#094331" transform="translate(99,194)"/>
<path d="M0 0 C5.39841689 -0.49076517 5.39841689 -0.49076517 8.375 1.9375 C10 4 10 4 10 5 C8.02 5 6.04 5 4 5 C4 4.01 4 3.02 4 2 C2.68 1.67 1.36 1.34 0 1 C0 0.67 0 0.34 0 0 Z " fill="#171E23" transform="translate(144,202)"/>
<path d="M0 0 C3.38079335 -0.29033531 6.62797616 -0.43407528 10 0 C12.87411615 2.59371457 13.78516202 4.35548606 15 8 C12 7 12 7 10.3125 5.0625 C7.07359077 2.17374312 4.22877055 1.84575411 0 1 C0 0.67 0 0.34 0 0 Z " fill="#063D29" transform="translate(156,191)"/>
<path d="M0 0 C2.3129482 2.3129482 2.49580975 3.47904875 3.125 6.625 C3.29257812 7.44226563 3.46015625 8.25953125 3.6328125 9.1015625 C3.81457031 10.04128906 3.81457031 10.04128906 4 11 C2.35 10.01 0.7 9.02 -1 8 C-1.33 8.66 -1.66 9.32 -2 10 C-1.46274105 6.62294375 -0.88935377 3.303314 0 0 Z " fill="#044E2F" transform="translate(295,170)"/>
<path d="M0 0 C0.33 0 0.66 0 1 0 C1 3.63 1 7.26 1 11 C0.01 11.495 0.01 11.495 -1 12 C-1.66 11.67 -2.32 11.34 -3 11 C-2.32829194 7.1936543 -1.27253436 3.64793184 0 0 Z " fill="#27C283" transform="translate(235,193)"/>
<path d="M0 0 C0.99 0.66 1.98 1.32 3 2 C2.25 4.4375 2.25 4.4375 1 7 C-1.125 7.8125 -1.125 7.8125 -3 8 C-2.45276317 4.62537285 -1.9451 2.91765 0 0 Z " fill="#1BE48F" transform="translate(223,190)"/>
<path d="M0 0 C0.66 0.33 1.32 0.66 2 1 C2 1.66 2 2.32 2 3 C1.34 3 0.68 3 0 3 C-0.0825 3.94875 -0.165 4.8975 -0.25 5.875 C-1 9 -1 9 -2.8125 10.4375 C-5.28649422 11.07366994 -6.61888932 10.85039667 -9 10 C-8.236875 9.608125 -7.47375 9.21625 -6.6875 8.8125 C-3.16167151 6.43461567 -1.85941998 3.71883996 0 0 Z " fill="#30B481" transform="translate(84,194)"/>
<path d="M0 0 C-2 2 -2 2 -4.875 2.875 C-8.20111038 4.07239974 -9.71324878 5.3614409 -12 8 C-11.8125 5.125 -11.8125 5.125 -11 2 C-7.43483742 -0.24095934 -4.12944888 -0.19206739 0 0 Z " fill="#023222" transform="translate(355,200)"/>
<path d="M0 0 C3.61855575 0.62388892 4.1709277 1.1709277 7 4 C3.04 4 -0.92 4 -5 4 C-3.68 3.67 -2.36 3.34 -1 3 C-0.67 2.01 -0.34 1.02 0 0 Z " fill="#08362E" transform="translate(107,170)"/>
<path d="M0 0 C1.65 0 3.3 0 5 0 C4.67 1.65 4.34 3.3 4 5 C2.68 5.33 1.36 5.66 0 6 C0 4.02 0 2.04 0 0 Z " fill="#17E68E" transform="translate(53,163)"/>
<path d="M0 0 C0.33 0 0.66 0 1 0 C1.12117188 0.66386719 1.24234375 1.32773438 1.3671875 2.01171875 C2.22547708 6.53424459 3.03971311 10.79938524 5 15 C1.125 13.25 1.125 13.25 0 11 C-0.07033769 9.12620395 -0.0843022 7.24998898 -0.0625 5.375 C-0.05347656 4.37210938 -0.04445312 3.36921875 -0.03515625 2.3359375 C-0.02355469 1.56507813 -0.01195312 0.79421875 0 0 Z " fill="#013220" transform="translate(58,185)"/>
<path d="M0 0 C0.99 0 1.98 0 3 0 C2.67 3.3 2.34 6.6 2 10 C1.34 10 0.68 10 0 10 C0 6.7 0 3.4 0 0 Z " fill="#072523" transform="translate(98,212)"/>
<path d="M0 0 C0.33 0.99 0.66 1.98 1 3 C3.97 3.495 3.97 3.495 7 4 C6.01 4.495 6.01 4.495 5 5 C5 5.66 5 6.32 5 7 C5.66 7.33 6.32 7.66 7 8 C4 8 4 8 1.3125 5.5 C0.549375 4.675 -0.21375 3.85 -1 3 C-0.67 2.01 -0.34 1.02 0 0 Z " fill="#2ED091" transform="translate(48,203)"/>
<path d="M0 0 C2.97 0.495 2.97 0.495 6 1 C5.67 2.98 5.34 4.96 5 7 C4.01 7 3.02 7 2 7 C1.34 4.69 0.68 2.38 0 0 Z " fill="#04432B" transform="translate(167,181)"/>
<path d="M0 0 C0.66 0 1.32 0 2 0 C0.4972742 4.20763224 -2.23332995 5.8027758 -6 8 C-6.66 8 -7.32 8 -8 8 C-8 7.34 -8 6.68 -8 6 C-7.05125 5.7525 -6.1025 5.505 -5.125 5.25 C-1.91306809 4.3142923 -1.91306809 4.3142923 -0.625 1.875 C-0.41875 1.25625 -0.2125 0.6375 0 0 Z " fill="#36BA89" transform="translate(166,209)"/>
<path d="M0 0 C1.32 0 2.64 0 4 0 C3.25 5.75 3.25 5.75 1 8 C0.67 5.36 0.34 2.72 0 0 Z " fill="#37CB90" transform="translate(238,210)"/>
<path d="M0 0 C1.1875 1.5 1.1875 1.5 2 4 C1.27101296 6.78824238 0.1843275 9.37665092 -1 12 C-1.66 11.34 -2.32 10.68 -3 10 C-3 8.68 -3 7.36 -3 6 C-2.34 6 -1.68 6 -1 6 C-0.67 4.02 -0.34 2.04 0 0 Z " fill="#2BCE90" transform="translate(252,178)"/>
<path d="M0 0 C2.00720923 0.28674418 4.0085944 0.61866701 6 1 C6.33 1.99 6.66 2.98 7 4 C4.69 4 2.38 4 0 4 C-0.33 3.01 -0.66 2.02 -1 1 C-0.67 0.67 -0.34 0.34 0 0 Z " fill="#17E590" transform="translate(121,178)"/>
<path d="M0 0 C0.99 0.33 1.98 0.66 3 1 C1.68 3.31 0.36 5.62 -1 8 C-1.33 8 -1.66 8 -2 8 C-2.125 5.125 -2.125 5.125 -2 2 C-1.34 1.34 -0.68 0.68 0 0 Z " fill="#32D290" transform="translate(173,196)"/>
<path d="M0 0 C0.33 0 0.66 0 1 0 C1 3.3 1 6.6 1 10 C0.01 9.67 -0.98 9.34 -2 9 C-2 7.35 -2 5.7 -2 4 C-1.34 4 -0.68 4 0 4 C0 2.68 0 1.36 0 0 Z " fill="#05281F" transform="translate(213,225)"/>
<path d="M0 0 C2.475 0.99 2.475 0.99 5 2 C5 3.65 5 5.3 5 7 C3.68 7.33 2.36 7.66 1 8 C1.20625 7.236875 1.4125 6.47375 1.625 5.6875 C2.33391203 2.78114056 2.33391203 2.78114056 0 0 Z " fill="#39D494" transform="translate(153,200)"/>
<path d="M0 0 C0.99 1.485 0.99 1.485 2 3 C2.66 2.67 3.32 2.34 4 2 C4 3.98 4 5.96 4 8 C2.68 8 1.36 8 0 8 C0 5.36 0 2.72 0 0 Z " fill="#26B479" transform="translate(115,174)"/>
<path d="M0 0 C0.66 0.33 1.32 0.66 2 1 C1.67 1.33 1.34 1.66 1 2 C1.66 2.33 2.32 2.66 3 3 C2.67 3.99 2.34 4.98 2 6 C-0.475 5.01 -0.475 5.01 -3 4 C-2.67 3.01 -2.34 2.02 -2 1 C-1.34 0.67 -0.68 0.34 0 0 Z " fill="#09241B" transform="translate(170,177)"/>
<path d="M0 0 C1.21236328 0.04060547 1.21236328 0.04060547 2.44921875 0.08203125 C3.06410156 0.11683594 3.67898437 0.15164062 4.3125 0.1875 C4.3125 0.5175 4.3125 0.8475 4.3125 1.1875 C0.1928623 2.47993536 -3.35581683 3.45002625 -7.6875 3.1875 C-5.26849268 0.20484049 -3.789448 -0.16475861 0 0 Z " fill="#095136" transform="translate(70.6875,167.8125)"/>
<path d="M0 0 C0.99 0.33 1.98 0.66 3 1 C3 2.32 3 3.64 3 5 C1.35 5 -0.3 5 -2 5 C-1.34 3.35 -0.68 1.7 0 0 Z " fill="#1F1A29" transform="translate(284,215)"/>
<path d="M0 0 C0.4125 0.556875 0.825 1.11375 1.25 1.6875 C3.12256399 4.16195956 5.05339344 6.5835229 7 9 C5.35 8.67 3.7 8.34 2 8 C1.67 7.01 1.34 6.02 1 5 C0.34 4.67 -0.32 4.34 -1 4 C-0.67 2.68 -0.34 1.36 0 0 Z " fill="#05472D" transform="translate(169,207)"/>
<path d="M0 0 C0.66 0 1.32 0 2 0 C0.52307692 4.67692308 0.52307692 4.67692308 -2.125 6.3125 C-3.053125 6.6528125 -3.053125 6.6528125 -4 7 C-2.92598892 4.08482708 -2.22189824 2.22189824 0 0 Z " fill="#15E893" transform="translate(84,201)"/>
<path d="M0 0 C2.97 0.495 2.97 0.495 6 1 C6.33 2.32 6.66 3.64 7 5 C6.01 5 5.02 5 4 5 C1.8125 2.5 1.8125 2.5 0 0 Z " fill="#06482E" transform="translate(149,201)"/>
<path d="M0 0 C0.99 0 1.98 0 3 0 C3 1.32 3 2.64 3 4 C2.34 4 1.68 4 1 4 C0.67 5.32 0.34 6.64 0 8 C-0.98120464 4.94736336 -0.98120464 3.05263664 0 0 Z " fill="#3AD292" transform="translate(198,198)"/>
<path d="M0 0 C0.33 0 0.66 0 1 0 C1 2.97 1 5.94 1 9 C0.01 8.67 -0.98 8.34 -2 8 C-1.47731534 5.23723823 -0.89130413 2.6739124 0 0 Z " fill="#1D1923" transform="translate(324,190)"/>
<path d="M0 0 C1.98 0.66 3.96 1.32 6 2 C5.67 3.32 5.34 4.64 5 6 C2.5 4.6875 2.5 4.6875 0 3 C0 2.01 0 1.02 0 0 Z " fill="#15E58C" transform="translate(112,181)"/>
<path d="M0 0 C-0.33 0.99 -0.66 1.98 -1 3 C-1.66 3.309375 -2.32 3.61875 -3 3.9375 C-5.20605562 4.82027141 -5.20605562 4.82027141 -5.75 7.125 C-5.8325 7.74375 -5.915 8.3625 -6 9 C-6.66 8.67 -7.32 8.34 -8 8 C-7.34 6.35 -6.68 4.7 -6 3 C-5.34 3 -4.68 3 -4 3 C-4 2.34 -4 1.68 -4 1 C-2 0 -2 0 0 0 Z " fill="#2FC08A" transform="translate(180,176)"/>
<path d="M0 0 C0.66 0.99 1.32 1.98 2 3 C1.34 3 0.68 3 0 3 C0.309375 3.8971875 0.309375 3.8971875 0.625 4.8125 C1 7 1 7 -1 10 C-1.66 10 -2.32 10 -3 10 C-2.01 6.7 -1.02 3.4 0 0 Z " fill="#094330" transform="translate(246,200)"/>
<path d="M0 0 C0.99 0 1.98 0 3 0 C2.67 2.31 2.34 4.62 2 7 C1.34 6.67 0.68 6.34 0 6 C0 4.02 0 2.04 0 0 Z " fill="#2EDA95" transform="translate(131,204)"/>
<path d="M0 0 C0.99 0 1.98 0 3 0 C2.67 1.32 2.34 2.64 2 4 C1.01 4 0.02 4 -1 4 C-1 5.32 -1 6.64 -1 8 C-1.66 7.67 -2.32 7.34 -3 7 C-2.67 5.68 -2.34 4.36 -2 3 C-1.34 3 -0.68 3 0 3 C0 2.01 0 1.02 0 0 Z " fill="#23DC8D" transform="translate(160,200)"/>
<path d="M0 0 C5.75 0.75 5.75 0.75 8 3 C5.08517222 3.80967438 3.53886783 4.21845993 0.6875 3.0625 C0.130625 2.711875 -0.42625 2.36125 -1 2 C-0.67 1.34 -0.34 0.68 0 0 Z " fill="#30C38C" transform="translate(158,192)"/>
<path d="M0 0 C-3.13498292 1.85776765 -5.37471432 2.20140476 -9 2 C-9.33 1.34 -9.66 0.68 -10 0 C-6.30458414 -0.95024979 -3.69541586 -0.95024979 0 0 Z " fill="#29DC94" transform="translate(160,193)"/>
<path d="M0 0 C1.32 0 2.64 0 4 0 C4.33 0.99 4.66 1.98 5 3 C1.25 4.125 1.25 4.125 -1 3 C-0.67 2.01 -0.34 1.02 0 0 Z " fill="#16E592" transform="translate(136,178)"/>
<path d="M0 0 C0.66 0 1.32 0 2 0 C2.33 2.64 2.66 5.28 3 8 C1.5 6.8125 1.5 6.8125 0 5 C-0.1875 2.3125 -0.1875 2.3125 0 0 Z " fill="#04382A" transform="translate(306,209)"/>
<path d="M0 0 C0 1.98 0 3.96 0 6 C-0.99 6 -1.98 6 -3 6 C-3.33 4.68 -3.66 3.36 -4 2 C-1 0 -1 0 0 0 Z " fill="#2BD895" transform="translate(169,203)"/>
<path d="M0 0 C1.9375 0.3125 1.9375 0.3125 4 1 C4.33 1.99 4.66 2.98 5 4 C4.01 4.495 4.01 4.495 3 5 C0.875 4.0625 0.875 4.0625 -1 3 C-0.67 2.01 -0.34 1.02 0 0 Z " fill="#2DCB8C" transform="translate(57,198)"/>
</svg>
