<svg version="1.1" id="Layer_1" xmlns="http://www.w3.org/2000/svg" xmlns:xlink="http://www.w3.org/1999/xlink" x="0px" y="0px"
	 width="100%" viewBox="0 0 390 390" enable-background="new 0 0 390 390" xml:space="preserve">
<path fill="#142129" opacity="1.000000" stroke="none" 
	d="
M391.000000,177.000000 
	C391.000000,248.295151 391.000000,319.590302 391.000000,390.942719 
	C261.107788,390.942719 131.215561,390.942719 1.000000,390.942719 
	C1.000000,319.979431 1.000000,248.958374 1.425740,177.470001 
	C5.853785,176.828339 9.081113,177.657883 11.713057,181.362274 
	C14.103090,184.726196 21.027819,183.200287 23.212198,179.827301 
	C24.362309,178.051376 26.639938,177.005646 28.408447,175.630203 
	C29.599499,177.745605 31.677143,179.803574 31.818542,181.986954 
	C32.277782,189.078278 31.882755,196.221161 32.158455,203.330933 
	C32.223328,205.003845 33.630127,206.624710 34.419579,208.269516 
	C35.272549,206.745773 36.755905,205.264053 36.860790,203.690445 
	C37.180714,198.890686 36.841911,194.051331 36.999981,189.235291 
	C37.167713,184.124847 37.281483,178.969055 38.110634,173.947296 
	C38.405113,172.163757 40.731609,170.715729 42.228294,169.426117 
	C41.822464,172.551468 40.915787,175.362045 40.893398,178.179657 
	C40.834461,185.597702 41.266376,193.018402 41.295170,200.438843 
	C41.314663,205.460648 43.459694,208.296967 48.094250,208.840149 
	C48.063396,208.875137 48.144604,208.837601 48.166039,209.239288 
	C48.416939,213.540451 49.520058,216.692810 53.867725,217.950607 
	C55.047905,218.292023 56.395905,219.891769 56.681618,221.139572 
	C57.516312,224.784927 59.964031,224.714142 62.774967,224.517242 
	C68.584007,224.110352 74.403969,223.855774 80.210541,223.419983 
	C81.474472,223.325150 82.762413,222.869537 83.934280,222.345322 
	C89.304604,219.943008 94.637627,217.457306 99.930405,215.356659 
	C98.254219,218.371674 96.631660,221.031570 94.908699,223.856079 
	C99.078133,226.325745 100.617958,223.302582 102.741989,220.991760 
	C106.213982,221.516678 109.502800,221.383972 112.412811,222.369659 
	C116.756500,223.840942 117.836090,221.359283 118.437553,218.212952 
	C118.802803,216.302246 118.453697,214.263580 118.521240,212.285675 
	C118.696114,207.163940 118.504120,201.975006 119.329041,196.955963 
	C119.678947,194.826996 121.871986,192.405670 123.874733,191.374008 
	C125.018478,190.784821 129.091400,192.821442 129.050568,193.510025 
	C128.847168,196.940125 134.370468,199.412262 130.453522,203.379990 
	C127.677925,206.191589 126.890488,209.434708 130.815369,212.626160 
	C132.153183,217.310760 139.412827,223.279312 143.814072,222.810455 
	C152.706665,221.863159 162.364655,223.580612 168.588470,216.796219 
	C172.083649,218.286499 174.715347,219.736221 177.530991,220.547867 
	C186.034561,222.999039 194.691406,223.331497 203.437286,221.901245 
	C205.208267,221.611633 207.189392,221.345261 208.841278,221.841568 
	C212.753784,223.016998 213.800201,220.884506 213.821701,217.832367 
	C213.867310,211.352066 213.642273,204.869995 213.539413,198.388458 
	C213.515381,196.874069 213.535858,195.358963 213.535858,193.844193 
	C217.343201,201.522751 220.618546,209.171844 223.471252,216.975449 
	C224.797989,220.604736 222.944946,222.968231 219.184784,223.986481 
	C217.819565,224.356186 216.625275,225.357117 215.298309,226.406464 
	C215.153976,227.188339 215.064285,227.633774 214.795319,228.373291 
	C214.418686,231.388031 209.059219,234.527283 215.715408,236.781158 
	C233.504593,237.262573 234.777695,236.463959 241.024872,220.390762 
	C245.231430,209.567856 249.303360,198.692581 253.807343,187.765961 
	C255.171936,186.339218 256.047607,184.878082 257.183624,183.659668 
	C259.115204,181.588013 260.893188,179.016815 263.311981,177.839554 
	C266.903961,176.091278 270.998260,175.375000 275.611267,174.001343 
	C276.495605,175.566437 277.940033,178.122772 279.343231,181.029144 
	C275.016113,194.047485 270.730225,206.715820 266.255920,219.941101 
	C270.638336,219.941101 273.789032,220.181992 276.880249,219.857101 
	C278.969543,219.637497 280.975098,218.621109 283.286194,217.864243 
	C286.475922,208.456024 294.062714,209.834686 301.200134,209.956024 
	C304.746155,210.016296 306.536041,211.343994 307.274994,215.013535 
	C308.479492,220.994843 313.709717,223.943375 319.596863,222.484772 
	C327.361298,220.561050 334.965088,220.890320 341.823395,223.799774 
	C343.705780,222.064255 345.380524,220.520172 347.272156,219.059982 
	C347.762268,219.313370 347.962158,219.545929 348.214966,220.139221 
	C351.092133,224.204315 354.230072,224.165451 357.663300,221.401428 
	C360.734375,218.928955 362.374390,211.169662 360.357544,207.080612 
	C358.282806,202.874115 354.329895,203.036362 350.423218,203.472900 
	C348.942017,203.638412 347.468018,203.868210 346.113892,203.874313 
	C345.474213,202.779785 344.711304,201.879654 343.943451,200.608261 
	C343.943634,199.494797 343.948761,198.752579 344.210205,197.884552 
	C344.978363,197.505630 345.490234,197.252518 346.312134,197.151581 
	C347.745819,197.532974 348.869415,197.762222 350.383820,197.940018 
	C354.468018,196.977875 358.161469,196.067169 362.679749,194.953064 
	C361.257599,193.832611 360.815826,193.329529 360.260315,193.070724 
	C354.260193,190.275421 352.534882,187.052277 354.315979,180.735703 
	C354.710541,179.336197 356.651947,177.295990 357.787140,177.355118 
	C365.783752,177.771515 374.870667,173.524689 380.109955,181.405396 
	C384.172455,179.761978 387.586212,178.380981 391.000000,177.000000 
z"/>
<path fill="#131D24" opacity="1.000000" stroke="none" 
	d="
M279.384460,180.679108 
	C277.940033,178.122772 276.495605,175.566437 275.611267,174.001343 
	C270.998260,175.375000 266.903961,176.091278 263.311981,177.839554 
	C260.893188,179.016815 259.115204,181.588013 257.183624,183.659668 
	C256.047607,184.878082 255.171936,186.339218 253.894958,187.418320 
	C253.833267,186.723419 254.055756,186.301376 254.390472,185.696030 
	C254.646194,185.263824 254.767838,185.004669 254.873154,184.390869 
	C254.339706,181.499741 258.946960,179.602097 255.446899,176.577240 
	C251.099014,176.612778 247.106186,176.797714 242.974640,177.249695 
	C242.560730,178.050110 242.285568,178.583496 241.845718,179.358917 
	C241.522644,180.159500 241.364258,180.718033 241.182587,181.486145 
	C241.159302,181.695709 240.944458,182.058609 240.663513,182.245728 
	C236.275024,185.927139 235.754440,190.450180 236.697723,195.463104 
	C236.727463,195.541672 236.600327,195.651550 236.237396,195.603897 
	C234.313232,194.216751 232.474884,193.086838 231.262360,191.483627 
	C229.815842,189.571030 228.905487,187.252930 227.796188,185.109741 
	C227.829498,185.109009 227.800339,185.168915 227.847702,184.753494 
	C226.914291,181.915756 225.933517,179.493423 224.700165,176.995056 
	C224.283188,176.856598 224.118759,176.794220 223.772278,176.636002 
	C223.063660,176.601318 222.537109,176.662460 221.668701,176.784775 
	C220.867325,176.805954 220.407806,176.765945 219.598999,176.584534 
	C216.612091,176.557434 213.974487,176.671753 211.133682,177.122086 
	C210.879288,177.979095 210.828094,178.500092 210.421143,178.958786 
	C207.487411,177.817917 204.810074,176.927322 202.349380,175.626831 
	C193.729736,171.071289 185.892548,172.057129 178.435455,178.658112 
	C177.785660,178.777512 177.413223,178.841385 176.810059,178.642273 
	C174.872269,177.983734 173.136246,177.154739 171.463104,177.266602 
	C163.617767,177.791122 162.623917,177.533676 159.278595,170.636459 
	C157.495850,166.960846 155.381836,166.207001 151.707840,168.209122 
	C152.294952,169.718323 152.798447,171.012573 152.912399,171.305466 
	C147.356567,173.604507 142.146683,175.760406 136.617126,177.900909 
	C132.709839,173.379456 127.732742,174.597168 122.959923,174.394669 
	C118.103638,174.188629 113.235992,173.468475 108.458984,172.535034 
	C106.349625,172.122864 104.207390,169.490875 102.507172,169.855911 
	C98.628647,170.688629 97.531799,168.498840 96.041832,165.993347 
	C95.300423,164.746613 94.252518,163.319260 93.001678,162.805862 
	C89.123871,161.214279 86.526947,159.112976 88.062698,155.122375 
	C83.867172,155.638763 79.315178,157.580215 75.890793,156.359207 
	C65.972801,152.822830 58.864361,159.539581 50.581535,161.849945 
	C50.143349,161.972168 49.735092,162.871979 49.643921,163.461029 
	C48.969204,167.820221 46.025352,169.080750 42.130486,169.114532 
	C40.731609,170.715729 38.405113,172.163757 38.110634,173.947296 
	C37.281483,178.969055 37.167713,184.124847 36.999981,189.235291 
	C36.841911,194.051331 37.180714,198.890686 36.860790,203.690445 
	C36.755905,205.264053 35.272549,206.745773 34.419579,208.269516 
	C33.630127,206.624710 32.223328,205.003845 32.158455,203.330933 
	C31.882755,196.221161 32.277782,189.078278 31.818542,181.986954 
	C31.677143,179.803574 29.599499,177.745605 28.408447,175.630203 
	C26.639938,177.005646 24.362309,178.051376 23.212198,179.827301 
	C21.027819,183.200287 14.103090,184.726196 11.713057,181.362274 
	C9.081113,177.657883 5.853785,176.828339 1.425740,177.001343 
	C1.000000,118.367928 1.000000,59.735855 1.000000,1.051891 
	C130.888733,1.051891 260.777496,1.051891 391.000000,1.051891 
	C391.000000,59.353802 391.000000,117.708244 391.000000,176.531342 
	C387.586212,178.380981 384.172455,179.761978 380.109955,181.405396 
	C374.870667,173.524689 365.783752,177.771515 357.787140,177.355118 
	C356.651947,177.295990 354.710541,179.336197 354.315979,180.735703 
	C352.534882,187.052277 354.260193,190.275421 360.260315,193.070724 
	C360.815826,193.329529 361.257599,193.832611 362.679749,194.953064 
	C358.161469,196.067169 354.468018,196.977875 350.281586,197.672211 
	C348.526428,197.303696 347.264252,197.151535 346.002106,196.999390 
	C345.490234,197.252518 344.978363,197.505630 344.207184,197.444641 
	C343.949493,195.079834 343.951111,193.029144 344.266571,191.078369 
	C347.434509,192.539658 349.003571,191.914963 348.982971,188.478241 
	C348.944061,181.983170 349.020996,175.487350 348.967285,168.992508 
	C348.954651,167.462509 348.614014,165.935226 348.424286,164.406677 
	C347.876221,164.382751 347.328125,164.358826 346.780029,164.334900 
	C346.520599,166.450806 346.404266,168.596985 345.964722,170.674789 
	C345.439667,173.156921 344.638092,175.580582 343.949402,177.560394 
	C343.990143,172.098907 344.263336,167.092636 343.955566,162.122314 
	C343.856110,160.515732 342.240082,157.672729 341.302734,157.666534 
	C335.654816,157.629150 330.002533,158.251770 324.854095,158.617783 
	C325.318909,163.631119 325.911469,167.365616 325.964996,171.107849 
	C326.112610,181.425308 325.980377,191.746567 326.087952,202.064972 
	C326.111816,204.351807 326.667236,206.633087 327.038147,209.314926 
	C326.665741,210.462372 326.233154,211.211823 325.800568,211.961273 
	C325.058319,210.976364 324.012390,210.098816 323.620422,208.990082 
	C319.411896,197.084656 315.244019,185.163956 311.188934,173.205414 
	C306.156830,158.365631 306.209839,158.405350 290.665802,159.110458 
	C287.919464,159.235031 286.570923,160.163345 285.720215,162.862381 
	C283.826569,168.870102 281.521698,174.748199 279.384460,180.679108 
z"/>
<path fill="#2AD58F" opacity="1.000000" stroke="none" 
	d="
M279.343201,181.029129 
	C281.521698,174.748199 283.826569,168.870102 285.720215,162.862381 
	C286.570923,160.163345 287.919464,159.235031 290.665802,159.110458 
	C306.209839,158.405350 306.156830,158.365631 311.188934,173.205414 
	C315.244019,185.163956 319.411896,197.084656 323.620422,208.990082 
	C324.012390,210.098816 325.058319,210.976364 325.800568,211.961273 
	C326.233154,211.211823 326.665741,210.462372 327.114685,208.861206 
	C327.153473,195.019470 327.070526,182.028137 327.231354,169.039841 
	C327.363007,158.407318 324.856354,159.273773 337.496918,159.180817 
	C341.063934,159.154587 342.016876,160.504623 341.993103,163.879013 
	C341.871246,181.198654 341.904175,198.519852 341.984650,215.840012 
	C341.997925,218.702148 341.270569,220.067490 338.063416,219.988998 
	C330.241089,219.797562 322.403412,220.097351 314.590546,219.763443 
	C313.000916,219.695496 310.692657,218.044708 310.080017,216.560455 
	C306.618286,208.174011 306.759949,208.115723 297.611237,208.112320 
	C296.445435,208.111893 295.279602,208.106354 294.113800,208.106216 
	C285.342773,208.105118 285.338287,208.104172 283.125824,216.479233 
	C283.001526,216.949844 283.050018,217.466095 283.018127,217.961105 
	C280.975098,218.621109 278.969543,219.637497 276.880249,219.857101 
	C273.789032,220.181992 270.638336,219.941101 266.255920,219.941101 
	C270.730225,206.715820 275.016113,194.047485 279.343201,181.029129 
M314.808472,193.340683 
	C314.568726,191.033295 314.742645,188.585266 314.014618,186.443893 
	C311.446838,178.891434 308.614716,171.426849 305.754608,163.978180 
	C305.387482,163.022034 304.302490,161.710281 303.486694,161.663315 
	C299.197418,161.416382 294.878021,161.363831 290.592590,161.627029 
	C289.610596,161.687347 288.152863,163.113876 287.889038,164.157990 
	C286.818085,168.396484 286.126862,172.730927 285.398407,176.498322 
	C284.118591,178.383163 282.525818,179.926620 281.915710,181.791534 
	C280.570221,185.904327 280.050812,190.297958 278.591553,194.360474 
	C276.313812,200.701416 273.432892,206.824249 271.076385,213.139801 
	C270.703583,214.138962 271.338196,216.264267 272.197388,216.841614 
	C275.720856,219.209366 280.931610,217.009369 282.197876,213.009552 
	C283.538727,208.773972 284.973999,204.826538 290.795288,205.029129 
	C295.866180,205.205627 300.963196,204.632339 307.064667,204.342010 
	C308.407501,206.812744 310.596222,210.534805 312.481110,214.404846 
	C313.980042,217.482391 316.497070,217.797974 319.146301,216.963242 
	C319.600281,216.820190 319.176117,213.887009 319.155762,212.242767 
	C319.143677,211.265579 318.865540,210.200272 319.159088,209.326447 
	C320.467194,205.432358 319.351501,202.236145 316.976379,199.078796 
	C315.934387,197.693619 315.661133,195.730164 315.073547,193.985565 
	C315.073547,193.985565 314.969879,193.960205 314.808472,193.340683 
z"/>
<path fill="#26DB90" opacity="1.000000" stroke="none" 
	d="
M210.776901,179.021088 
	C210.828094,178.500092 210.879288,177.979095 211.540649,177.191437 
	C214.749985,176.858490 217.349136,176.792221 219.948288,176.725952 
	C220.407806,176.765945 220.867325,176.805954 221.989044,176.868515 
	C223.085617,176.837997 223.519989,176.784912 223.954346,176.731827 
	C224.118759,176.794220 224.283188,176.856598 224.760971,177.355072 
	C225.983002,180.250397 226.891663,182.709656 227.800339,185.168915 
	C227.800339,185.168915 227.829498,185.109009 227.817596,185.502945 
	C229.583542,191.639633 231.361374,197.382385 233.139206,203.125137 
	C233.494934,203.057297 233.850662,202.989441 234.206390,202.921600 
	C235.004379,200.498245 235.802353,198.074905 236.600342,195.651550 
	C236.600327,195.651550 236.727463,195.541672 236.879364,195.166748 
	C238.335663,190.547409 239.640060,186.303009 240.944458,182.058609 
	C240.944458,182.058609 241.159302,181.695709 241.403244,181.278687 
	C241.768265,180.280060 241.889328,179.698471 242.010406,179.116867 
	C242.285568,178.583496 242.560730,178.050110 243.422043,177.250336 
	C247.939453,176.898163 251.870697,176.812408 255.801956,176.726639 
	C258.946960,179.602097 254.339706,181.499741 254.679230,184.521881 
	C254.252289,185.254654 254.185104,185.548676 254.278244,185.879333 
	C254.055756,186.301376 253.833267,186.723419 253.523148,187.493103 
	C249.303360,198.692581 245.231430,209.567856 241.024872,220.390762 
	C234.777695,236.463959 233.504593,237.262573 215.712601,236.356277 
	C215.167572,233.278793 215.071091,230.679001 214.974609,228.079208 
	C215.064285,227.633774 215.153976,227.188339 215.714355,226.416656 
	C217.515350,226.062729 218.847229,226.066757 220.175705,226.001678 
	C224.802841,225.775024 227.631668,222.173279 226.025314,217.951843 
	C221.068970,204.926804 215.877213,191.991348 210.776901,179.021088 
z"/>
<path fill="#0C2F27" opacity="1.000000" stroke="none" 
	d="
M42.228291,169.426117 
	C46.025352,169.080750 48.969204,167.820221 49.643921,163.461029 
	C49.735092,162.871979 50.143349,161.972168 50.581535,161.849945 
	C58.864361,159.539581 65.972801,152.822830 75.890793,156.359207 
	C79.315178,157.580215 83.867172,155.638763 88.062698,155.122375 
	C86.526947,159.112976 89.123871,161.214279 93.001678,162.805862 
	C94.252518,163.319260 95.300423,164.746613 96.041832,165.993347 
	C97.531799,168.498840 98.628647,170.688629 102.507172,169.855911 
	C104.207390,169.490875 106.349625,172.122864 108.458984,172.535034 
	C113.235992,173.468475 118.103638,174.188629 122.959923,174.394669 
	C127.732742,174.597168 132.709839,173.379456 136.753937,178.047058 
	C137.210434,178.208603 137.484879,178.500122 137.286774,178.755493 
	C135.251053,180.582733 133.413452,182.154587 131.285461,183.974823 
	C131.025436,181.368958 130.818405,179.294083 130.462860,175.730957 
	C125.511337,177.469376 121.237389,178.969910 116.912514,180.488327 
	C116.844131,180.133713 116.577583,178.751465 116.314796,177.388718 
	C111.830772,177.388718 107.628059,177.388718 103.072777,177.388718 
	C103.072777,185.661819 103.149216,193.473633 103.017868,201.281967 
	C102.985893,203.182358 102.270874,205.071243 101.659348,207.264740 
	C100.960541,210.043228 100.472298,212.522400 99.984047,215.001556 
	C94.637627,217.457306 89.304604,219.943008 83.934280,222.345322 
	C82.762413,222.869537 81.474472,223.325150 80.210541,223.419983 
	C74.403969,223.855774 68.584007,224.110352 62.774967,224.517242 
	C59.964031,224.714142 57.516312,224.784927 56.681618,221.139572 
	C56.395905,219.891769 55.047905,218.292023 53.867725,217.950607 
	C49.520058,216.692810 48.416939,213.540451 48.412548,209.360107 
	C49.027332,209.452545 49.417034,209.825821 49.867737,210.136902 
	C49.928738,210.074722 49.787407,210.176514 49.903336,210.480530 
	C50.958340,211.668198 51.897423,212.551834 52.940163,213.604614 
	C53.043819,213.773788 53.389912,213.967865 53.563728,214.238770 
	C61.219467,220.531845 69.632324,222.207764 79.202011,219.923126 
	C80.068764,219.755219 80.632172,219.563202 81.545151,219.345764 
	C83.331665,218.609039 84.768593,217.897720 86.174896,217.174652 
	C86.144257,217.162888 86.139153,217.228317 86.473442,217.179031 
	C88.050560,216.222412 89.293388,215.315094 90.438049,214.371735 
	C90.339882,214.335709 90.268158,214.532166 90.566109,214.417633 
	C91.086708,213.952652 91.309357,213.602219 91.403816,213.287827 
	C91.275635,213.323853 91.348000,213.580139 91.630325,213.468292 
	C92.127594,213.024536 92.342545,212.692612 92.483604,212.388565 
	C92.409714,212.416443 92.465897,212.564056 92.737534,212.420471 
	C93.166504,211.911453 93.323845,211.546021 93.424484,211.264236 
	C93.367775,211.347900 93.535240,211.461105 93.826141,211.294800 
	C96.037224,207.740570 97.957397,204.352646 99.925346,200.501129 
	C100.036095,194.373825 100.099075,188.710114 100.431107,182.831116 
	C99.506531,179.331497 98.312881,176.047180 97.078110,172.554321 
	C97.036987,172.345779 96.794853,171.996368 96.737289,171.695496 
	C95.892967,170.480988 95.106194,169.567352 94.301086,168.693542 
	C94.282753,168.733383 94.362282,168.696426 94.250626,168.376648 
	C91.341324,165.848724 88.543686,163.640579 85.667633,161.347488 
	C85.589226,161.262543 85.358040,161.264862 85.088364,161.081909 
	C83.572784,160.540344 82.326889,160.181732 80.880798,159.619751 
	C80.124123,159.332733 79.567642,159.249084 78.626816,159.013214 
	C72.087402,157.611816 66.101669,157.865875 60.318825,160.845551 
	C60.212135,160.823090 60.050827,160.969803 59.701797,161.000092 
	C57.508656,162.296005 55.664539,163.561661 53.867279,164.864777 
	C53.914135,164.902252 53.849705,164.801025 53.546646,164.919708 
	C52.121933,166.332642 51.000278,167.626877 49.907539,168.937546 
	C49.936459,168.953979 49.922733,168.888885 49.615425,169.048309 
	C48.009476,171.752182 46.710835,174.296631 45.276882,177.087662 
	C45.064960,177.888718 44.988346,178.443207 44.700180,179.320099 
	C42.455524,187.609573 42.271950,195.462708 45.949200,203.050385 
	C45.966423,203.021622 45.903435,203.044586 45.924545,203.395142 
	C46.672138,205.432175 47.398621,207.118668 48.125099,208.805161 
	C43.459694,208.296967 41.314663,205.460648 41.295170,200.438843 
	C41.266376,193.018402 40.834461,185.597702 40.893398,178.179657 
	C40.915787,175.362045 41.822464,172.551468 42.228291,169.426117 
z"/>
<path fill="#053928" opacity="1.000000" stroke="none" 
	d="
M210.421143,178.958786 
	C215.877213,191.991348 221.068970,204.926804 226.025314,217.951843 
	C227.631668,222.173279 224.802841,225.775024 220.175705,226.001678 
	C218.847229,226.066757 217.515350,226.062729 215.769012,226.080215 
	C216.625275,225.357117 217.819565,224.356186 219.184784,223.986481 
	C222.944946,222.968231 224.797989,220.604736 223.471252,216.975449 
	C220.618546,209.171844 217.343201,201.522751 213.535858,193.844193 
	C213.535858,195.358963 213.515381,196.874069 213.539413,198.388458 
	C213.642273,204.869995 213.867310,211.352066 213.821701,217.832367 
	C213.800201,220.884506 212.753784,223.016998 208.841278,221.841568 
	C207.189392,221.345261 205.208267,221.611633 203.437286,221.901245 
	C194.691406,223.331497 186.034561,222.999039 177.530991,220.547867 
	C174.715347,219.736221 172.083649,218.286499 168.588470,216.796219 
	C162.364655,223.580612 152.706665,221.863159 143.814072,222.810455 
	C139.412827,223.279312 132.153183,217.310760 130.901398,212.540161 
	C130.940109,212.084305 131.112930,211.913040 131.381302,212.112579 
	C135.511414,218.100189 141.331711,220.192795 147.878448,220.745132 
	C157.131622,221.525818 165.306564,219.546661 170.796127,210.225754 
	C172.647812,217.101288 177.124054,219.357758 182.699249,220.527054 
	C188.739029,221.793793 193.152069,219.026260 197.488297,214.713181 
	C197.856369,216.776077 198.109772,218.196320 198.424271,219.958878 
	C201.470627,219.958878 204.461197,219.867416 207.443512,219.985031 
	C210.328918,220.098816 211.304245,219.324890 211.209610,216.027206 
	C210.986588,208.256180 211.788345,200.456024 211.572357,192.684418 
	C211.446335,188.149857 211.084991,183.624817 206.242004,180.486526 
	C197.247009,174.657715 188.306351,175.133835 178.914490,178.880997 
	C178.846527,178.788727 178.712814,178.602600 178.712814,178.602600 
	C185.892548,172.057129 193.729736,171.071289 202.349380,175.626831 
	C204.810074,176.927322 207.487411,177.817917 210.421143,178.958786 
z"/>
<path fill="#043726" opacity="1.000000" stroke="none" 
	d="
M283.286194,217.864243 
	C283.050018,217.466095 283.001526,216.949844 283.125824,216.479233 
	C285.338287,208.104172 285.342773,208.105118 294.113800,208.106216 
	C295.279602,208.106354 296.445435,208.111893 297.611237,208.112320 
	C306.759949,208.115723 306.618286,208.174011 310.080017,216.560455 
	C310.692657,218.044708 313.000916,219.695496 314.590546,219.763443 
	C322.403412,220.097351 330.241089,219.797562 338.063416,219.988998 
	C341.270569,220.067490 341.997925,218.702148 341.984650,215.840012 
	C341.904175,198.519852 341.871246,181.198654 341.993103,163.879013 
	C342.016876,160.504623 341.063934,159.154587 337.496918,159.180817 
	C324.856354,159.273773 327.363007,158.407318 327.231354,169.039841 
	C327.070526,182.028137 327.153473,195.019470 327.054474,208.463211 
	C326.667236,206.633087 326.111816,204.351807 326.087952,202.064972 
	C325.980377,191.746567 326.112610,181.425308 325.964996,171.107849 
	C325.911469,167.365616 325.318909,163.631119 324.854095,158.617783 
	C330.002533,158.251770 335.654816,157.629150 341.302734,157.666534 
	C342.240082,157.672729 343.856110,160.515732 343.955566,162.122314 
	C344.263336,167.092636 343.990143,172.098907 343.946503,178.019684 
	C343.951202,182.958221 343.951965,186.968338 343.952759,190.978439 
	C343.951111,193.029144 343.949493,195.079834 343.950867,197.570465 
	C343.948761,198.752579 343.943634,199.494797 343.958984,200.907166 
	C344.649902,202.407806 345.320312,203.238251 345.990723,204.068695 
	C347.468018,203.868210 348.942017,203.638412 350.423218,203.472900 
	C354.329895,203.036362 358.282806,202.874115 360.357544,207.080612 
	C362.374390,211.169662 360.734375,218.928955 357.663300,221.401428 
	C354.230072,224.165451 351.092133,224.204315 348.581604,220.187836 
	C349.795227,220.136459 350.764221,220.478867 351.742371,220.507339 
	C356.488495,220.645447 360.129822,216.957504 359.797180,212.437363 
	C359.477325,208.090851 355.420349,204.780655 351.201874,205.424210 
	C346.682068,206.113739 343.842346,210.428680 345.064331,215.032974 
	C345.433868,216.425415 346.375580,217.665970 347.055237,218.976089 
	C345.380524,220.520172 343.705780,222.064255 341.823395,223.799774 
	C334.965088,220.890320 327.361298,220.561050 319.596863,222.484772 
	C313.709717,223.943375 308.479492,220.994843 307.274994,215.013535 
	C306.536041,211.343994 304.746155,210.016296 301.200134,209.956024 
	C294.062714,209.834686 286.475922,208.456024 283.286194,217.864243 
z"/>
<path fill="#053928" opacity="1.000000" stroke="none" 
	d="
M130.854080,212.170319 
	C126.890488,209.434708 127.677925,206.191589 130.453522,203.379990 
	C134.370468,199.412262 128.847168,196.940125 129.050568,193.510025 
	C129.091400,192.821442 125.018478,190.784821 123.874733,191.374008 
	C121.871986,192.405670 119.678947,194.826996 119.329041,196.955963 
	C118.504120,201.975006 118.696114,207.163940 118.521240,212.285675 
	C118.453697,214.263580 118.802803,216.302246 118.437553,218.212952 
	C117.836090,221.359283 116.756500,223.840942 112.412811,222.369659 
	C109.502800,221.383972 106.213982,221.516678 102.743004,220.742630 
	C102.391350,220.336304 102.417389,219.838409 102.845398,219.801697 
	C107.693062,219.764969 112.112709,219.764969 117.042419,219.764969 
	C117.042419,212.576050 116.982346,205.961792 117.079308,199.349823 
	C117.108109,197.385010 117.283821,195.327408 117.904922,193.485199 
	C119.366150,189.151184 123.054688,188.438248 127.086388,188.110596 
	C131.435181,187.757156 130.016983,191.486847 131.358444,193.293579 
	C133.609238,196.325012 136.282303,199.544724 139.533951,201.196381 
	C143.103149,203.009338 147.618301,202.857422 151.540955,204.121277 
	C153.437653,204.732361 154.921646,206.624313 156.592499,207.936310 
	C154.595245,209.008606 152.695786,210.557266 150.568100,210.993988 
	C149.021713,211.311386 146.421249,210.709732 145.585876,209.569214 
	C141.182510,203.557495 135.543350,207.038254 129.739807,206.327286 
	C130.343246,208.782028 130.728088,210.347534 131.112930,211.913040 
	C131.112930,211.913040 130.940109,212.084305 130.854080,212.170319 
z"/>
<path fill="#2AD590" opacity="1.000000" stroke="none" 
	d="
M347.272156,219.059982 
	C346.375580,217.665970 345.433868,216.425415 345.064331,215.032974 
	C343.842346,210.428680 346.682068,206.113739 351.201874,205.424210 
	C355.420349,204.780655 359.477325,208.090851 359.797180,212.437363 
	C360.129822,216.957504 356.488495,220.645447 351.742371,220.507339 
	C350.764221,220.478867 349.795227,220.136459 348.455322,219.890167 
	C347.962158,219.545929 347.762268,219.313370 347.272156,219.059982 
z"/>
<path fill="#131D24" opacity="1.000000" stroke="none" 
	d="
M102.417389,219.838409 
	C102.417389,219.838409 102.391350,220.336304 102.390335,220.585419 
	C100.617958,223.302582 99.078133,226.325745 94.908699,223.856079 
	C96.631660,221.031570 98.254219,218.371674 99.930412,215.356659 
	C100.472298,212.522400 100.960541,210.043228 101.742607,207.676239 
	C102.163422,211.805084 102.290405,215.821747 102.417389,219.838409 
z"/>
<path fill="#053928" opacity="1.000000" stroke="none" 
	d="
M214.795319,228.373291 
	C215.071091,230.679001 215.167572,233.278793 215.266861,236.303467 
	C209.059219,234.527283 214.418686,231.388031 214.795319,228.373291 
z"/>
<path fill="#112127" opacity="1.000000" stroke="none" 
	d="
M346.312134,197.151566 
	C347.264252,197.151535 348.526428,197.303696 349.890808,197.723663 
	C348.869415,197.762222 347.745819,197.532974 346.312134,197.151566 
z"/>
<path fill="#131D24" opacity="1.000000" stroke="none" 
	d="
M346.113892,203.874313 
	C345.320312,203.238251 344.649902,202.407806 343.963928,201.278442 
	C344.711304,201.879654 345.474213,202.779785 346.113892,203.874313 
z"/>
<path fill="#0C2F27" opacity="1.000000" stroke="none" 
	d="
M137.073608,178.062439 
	C142.146683,175.760406 147.356567,173.604507 152.912399,171.305466 
	C152.798447,171.012573 152.294952,169.718323 151.707840,168.209122 
	C155.381836,166.207001 157.495850,166.960846 159.278595,170.636459 
	C162.623917,177.533676 163.617767,177.791122 171.463104,177.266602 
	C173.136246,177.154739 174.872269,177.983734 176.662628,178.901184 
	C176.509659,180.165985 176.273376,180.908920 175.838379,181.982727 
	C174.509338,184.894730 173.379013,187.475845 171.931854,190.780472 
	C178.236023,190.720810 183.391815,192.750671 187.600204,187.354706 
	C188.757111,185.871353 192.798981,186.297638 195.461670,186.517624 
	C196.367752,186.592499 197.713226,188.710999 197.739227,189.919739 
	C197.763245,191.036713 196.493393,192.874832 195.436569,193.186890 
	C192.674957,194.002274 189.718094,194.156403 186.696136,194.509384 
	C186.154327,194.437759 185.755432,194.430954 185.022552,194.588089 
	C183.781723,195.114487 182.874893,195.476944 181.766785,195.599075 
	C176.625259,193.824875 173.599976,195.591354 172.693604,200.602829 
	C172.702911,200.661163 172.586365,200.680557 172.071350,200.624130 
	C170.866562,200.524506 170.176773,200.481308 169.556915,200.276230 
	C169.626816,200.114349 169.950592,200.254105 169.739258,200.058350 
	C169.268112,199.576508 169.008301,199.290421 168.811646,199.056732 
	C168.874802,199.109131 168.769913,199.235367 168.710892,198.928833 
	C166.273788,196.526810 163.895706,194.431290 161.650497,192.452866 
	C163.549194,192.083466 166.198441,191.568039 169.064850,190.779236 
	C169.126556,183.784485 165.428757,179.136627 158.376633,177.149078 
	C151.284851,175.150345 144.302094,175.777969 137.484879,178.500122 
	C137.484879,178.500122 137.210434,178.208603 137.073608,178.062439 
z"/>
<path fill="#112127" opacity="1.000000" stroke="none" 
	d="
M344.266541,191.078369 
	C343.951965,186.968338 343.951202,182.958221 343.953369,178.488831 
	C344.638092,175.580582 345.439667,173.156921 345.964722,170.674789 
	C346.404266,168.596985 346.520599,166.450806 346.780029,164.334900 
	C347.328125,164.358826 347.876221,164.382751 348.424286,164.406677 
	C348.614014,165.935226 348.954651,167.462509 348.967285,168.992508 
	C349.020996,175.487350 348.944061,181.983170 348.982971,188.478241 
	C349.003571,191.914963 347.434509,192.539658 344.266541,191.078369 
z"/>
<path fill="#053928" opacity="1.000000" stroke="none" 
	d="
M236.237396,195.603897 
	C235.802353,198.074905 235.004379,200.498245 234.206390,202.921600 
	C233.850662,202.989441 233.494934,203.057297 233.139206,203.125137 
	C231.361374,197.382385 229.583542,191.639633 227.784302,185.503693 
	C228.905487,187.252930 229.815842,189.571030 231.262360,191.483627 
	C232.474884,193.086838 234.313232,194.216751 236.237396,195.603897 
z"/>
<path fill="#053928" opacity="1.000000" stroke="none" 
	d="
M240.663513,182.245728 
	C239.640060,186.303009 238.335663,190.547409 236.849609,195.088165 
	C235.754440,190.450180 236.275024,185.927139 240.663513,182.245728 
z"/>
<path fill="#053928" opacity="1.000000" stroke="none" 
	d="
M227.847702,184.753494 
	C226.891663,182.709656 225.983002,180.250397 225.013550,177.431122 
	C225.933517,179.493423 226.914291,181.915756 227.847702,184.753494 
z"/>
<path fill="#053928" opacity="1.000000" stroke="none" 
	d="
M255.446899,176.577240 
	C251.870697,176.812408 247.939453,176.898163 243.560791,176.983292 
	C247.106186,176.797714 251.099014,176.612778 255.446899,176.577240 
z"/>
<path fill="#053928" opacity="1.000000" stroke="none" 
	d="
M219.598999,176.584534 
	C217.349136,176.792221 214.749985,176.858490 211.743866,176.855408 
	C213.974487,176.671753 216.612091,176.557434 219.598999,176.584534 
z"/>
<path fill="#053928" opacity="1.000000" stroke="none" 
	d="
M176.037109,181.651840 
	C176.273376,180.908920 176.509659,180.165985 176.893356,179.164154 
	C177.413223,178.841385 177.785660,178.777512 178.435455,178.658112 
	C178.712814,178.602600 178.846527,178.788727 178.741196,179.120575 
	C177.769608,180.185562 176.903366,180.918701 176.037109,181.651840 
z"/>
<path fill="#053928" opacity="1.000000" stroke="none" 
	d="
M223.772278,176.636002 
	C223.519989,176.784912 223.085617,176.837997 222.330902,176.807327 
	C222.537109,176.662460 223.063660,176.601318 223.772278,176.636002 
z"/>
<path fill="#053928" opacity="1.000000" stroke="none" 
	d="
M241.845703,179.358917 
	C241.889328,179.698471 241.768265,180.280060 241.426514,181.069122 
	C241.364258,180.718033 241.522644,180.159500 241.845703,179.358917 
z"/>
<path fill="#142129" opacity="1.000000" stroke="none" 
	d="
M254.390472,185.696030 
	C254.185104,185.548676 254.252289,185.254654 254.673706,184.866272 
	C254.767838,185.004669 254.646194,185.263824 254.390472,185.696030 
z"/>
<path fill="#20E191" opacity="1.000000" stroke="none" 
	d="
M315.038818,194.029282 
	C315.661133,195.730164 315.934387,197.693619 316.976379,199.078796 
	C319.351501,202.236145 320.467194,205.432358 319.159088,209.326447 
	C318.865540,210.200272 319.143677,211.265579 319.155762,212.242767 
	C319.176117,213.887009 319.600281,216.820190 319.146301,216.963242 
	C316.497070,217.797974 313.980042,217.482391 312.481110,214.404846 
	C310.596222,210.534805 308.407501,206.812744 307.064667,204.342010 
	C300.963196,204.632339 295.866180,205.205627 290.795288,205.029129 
	C284.973999,204.826538 283.538727,208.773972 282.197876,213.009552 
	C280.931610,217.009369 275.720856,219.209366 272.197388,216.841614 
	C271.338196,216.264267 270.703583,214.138962 271.076385,213.139801 
	C273.432892,206.824249 276.313812,200.701416 278.591553,194.360474 
	C280.050812,190.297958 280.570221,185.904327 281.915710,181.791534 
	C282.525818,179.926620 284.118591,178.383163 285.398407,176.498322 
	C286.126862,172.730927 286.818085,168.396484 287.889038,164.157990 
	C288.152863,163.113876 289.610596,161.687347 290.592590,161.627029 
	C294.878021,161.363831 299.197418,161.416382 303.486694,161.663315 
	C304.302490,161.710281 305.387482,163.022034 305.754608,163.978180 
	C308.614716,171.426849 311.446838,178.891434 314.014618,186.443893 
	C314.742645,188.585266 314.568726,191.033295 314.906311,193.667801 
	C315.004181,193.994919 315.038818,194.029282 315.038818,194.029282 
M302.587067,196.829208 
	C300.958618,189.284286 299.330200,181.739365 297.701752,174.194443 
	C297.205750,174.242889 296.709747,174.291336 296.213745,174.339798 
	C294.168854,181.091995 292.078888,187.831360 290.148285,194.616074 
	C289.953491,195.300705 290.721649,196.259354 291.113495,197.508438 
	C292.414520,198.380661 293.674896,199.322418 295.024292,200.112000 
	C298.943085,202.405045 300.484161,201.723572 302.587067,196.829208 
M311.718994,206.195816 
	C312.552094,206.510330 313.385193,206.824829 314.218292,207.139343 
	C314.218292,205.056915 314.218292,202.974487 314.218292,200.892059 
	C313.451691,200.888275 312.685089,200.884506 311.918488,200.880722 
	C311.781891,202.439835 311.645264,203.998962 311.718994,206.195816 
M308.779358,185.496124 
	C308.624329,184.538239 308.469299,183.580353 308.314270,182.622467 
	C307.884918,182.800934 307.455536,182.979401 307.026154,183.157883 
	C307.547546,184.083450 308.068939,185.009033 308.779358,185.496124 
M277.734589,212.793137 
	C277.422333,212.383804 277.110077,211.974457 276.797852,211.565125 
	C276.506714,211.891129 276.215576,212.217133 275.924438,212.543106 
	C276.431091,212.727737 276.937775,212.912354 277.734589,212.793137 
M309.618866,190.541031 
	C309.765106,190.901352 309.911316,191.261673 310.057526,191.622009 
	C310.183167,191.537186 310.426575,191.395981 310.416931,191.375900 
	C310.251678,191.030701 310.055176,190.700455 309.618866,190.541031 
z"/>
<path fill="#20E191" opacity="1.000000" stroke="none" 
	d="
M314.987030,193.977570 
	C314.969879,193.960205 315.073547,193.985565 315.056183,194.007416 
	C315.038818,194.029282 315.004181,193.994919 314.987030,193.977570 
z"/>
<path fill="#27DB91" opacity="1.000000" stroke="none" 
	d="
M175.838379,181.982727 
	C176.903366,180.918701 177.769608,180.185562 178.809143,179.212845 
	C188.306351,175.133835 197.247009,174.657715 206.242004,180.486526 
	C211.084991,183.624817 211.446335,188.149857 211.572357,192.684418 
	C211.788345,200.456024 210.986588,208.256180 211.209610,216.027206 
	C211.304245,219.324890 210.328918,220.098816 207.443512,219.985031 
	C204.461197,219.867416 201.470627,219.958878 198.424271,219.958878 
	C198.109772,218.196320 197.856369,216.776077 197.488297,214.713181 
	C193.152069,219.026260 188.739029,221.793793 182.699249,220.527054 
	C177.124054,219.357758 172.647812,217.101288 170.796127,210.225754 
	C165.306564,219.546661 157.131622,221.525818 147.878448,220.745132 
	C141.331711,220.192795 135.511414,218.100189 131.381302,212.112579 
	C130.728088,210.347534 130.343246,208.782028 129.739807,206.327286 
	C135.543350,207.038254 141.182510,203.557495 145.585876,209.569214 
	C146.421249,210.709732 149.021713,211.311386 150.568100,210.993988 
	C152.695786,210.557266 154.595245,209.008606 156.592499,207.936310 
	C154.921646,206.624313 153.437653,204.732361 151.540955,204.121277 
	C147.618301,202.857422 143.103149,203.009338 139.533951,201.196381 
	C136.282303,199.544724 133.609238,196.325012 131.358444,193.293579 
	C130.016983,191.486847 131.435181,187.757156 127.086388,188.110596 
	C123.054688,188.438248 119.366150,189.151184 117.904922,193.485199 
	C117.283821,195.327408 117.108109,197.385010 117.079308,199.349823 
	C116.982346,205.961792 117.042419,212.576050 117.042419,219.764969 
	C112.112709,219.764969 107.693062,219.764969 102.845398,219.801697 
	C102.290405,215.821747 102.163422,211.805084 101.953186,207.376923 
	C102.270874,205.071243 102.985893,203.182358 103.017868,201.281967 
	C103.149216,193.473633 103.072777,185.661819 103.072777,177.388718 
	C107.628059,177.388718 111.830772,177.388718 116.314796,177.388718 
	C116.577583,178.751465 116.844131,180.133713 116.912514,180.488327 
	C121.237389,178.969910 125.511337,177.469376 130.462860,175.730957 
	C130.818405,179.294083 131.025436,181.368958 131.285461,183.974823 
	C133.413452,182.154587 135.251053,180.582733 137.286774,178.755493 
	C144.302094,175.777969 151.284851,175.150345 158.376633,177.149078 
	C165.428757,179.136627 169.126556,183.784485 168.631439,190.722504 
	C163.075516,190.925156 157.980240,191.718018 154.422409,186.897842 
	C153.862839,186.139755 152.340714,185.848221 151.237732,185.783661 
	C148.571899,185.627655 145.225403,185.440033 145.214172,189.024734 
	C145.210327,190.257812 148.315430,191.904572 150.271378,192.664810 
	C156.367828,195.034393 162.594025,197.070160 168.769913,199.235367 
	C168.769913,199.235367 168.874802,199.109131 168.895203,199.371246 
	C169.260590,199.840256 169.605591,200.047180 169.950592,200.254105 
	C169.950592,200.254105 169.626816,200.114349 169.649048,200.531769 
	C170.105881,201.556122 170.540466,202.163040 170.975052,202.769974 
	C171.512161,202.073502 172.049255,201.377029 172.586365,200.680557 
	C172.586365,200.680557 172.702911,200.661163 172.970978,200.412292 
	C176.148712,198.722092 179.058395,197.280746 181.968079,195.839401 
	C182.874893,195.476944 183.781723,195.114487 185.258987,194.658310 
	C186.165985,194.567795 186.502533,194.570984 186.839081,194.574188 
	C189.718094,194.156403 192.674957,194.002274 195.436569,193.186890 
	C196.493393,192.874832 197.763245,191.036713 197.739227,189.919739 
	C197.713226,188.710999 196.367752,186.592499 195.461670,186.517624 
	C192.798981,186.297638 188.757111,185.871353 187.600204,187.354706 
	C183.391815,192.750671 178.236023,190.720810 171.931854,190.780472 
	C173.379013,187.475845 174.509338,184.894730 175.838379,181.982727 
M196.077393,209.028824 
	C196.879089,206.621353 197.680786,204.213882 198.867676,200.649689 
	C194.057739,201.688080 190.896744,202.390167 187.726746,203.048843 
	C185.052856,203.604446 183.240189,205.252319 184.377106,207.842117 
	C185.136627,209.572296 187.302002,211.649506 188.969971,211.771561 
	C191.034729,211.922668 193.235794,210.210999 195.331543,209.266602 
	C195.331543,209.266602 195.392365,209.308502 196.077393,209.028824 
z"/>
<path fill="#25DB90" opacity="1.000000" stroke="none" 
	d="
M44.911736,178.997681 
	C44.988346,178.443207 45.064960,177.888718 45.596390,176.920532 
	C47.341713,173.967514 48.632221,171.428192 49.922729,168.888885 
	C49.922733,168.888885 49.936459,168.953979 50.250717,168.882660 
	C51.659885,167.474564 52.754795,166.137802 53.849705,164.801025 
	C53.849705,164.801025 53.914135,164.902252 54.245705,164.870468 
	C56.401794,163.549057 58.226315,162.259430 60.050831,160.969818 
	C60.050827,160.969803 60.212135,160.823090 60.786289,160.845642 
	C67.244019,160.300583 73.127586,159.733002 79.011162,159.165436 
	C79.567642,159.249084 80.124123,159.332733 81.068176,159.910248 
	C82.756516,160.691025 84.057281,160.977951 85.358040,161.264862 
	C85.358040,161.264862 85.589226,161.262543 85.689407,161.683060 
	C88.647156,164.301193 91.504723,166.498810 94.362282,168.696426 
	C94.362282,168.696426 94.282753,168.733383 94.318573,169.026535 
	C95.167877,170.211914 95.981361,171.104141 96.794853,171.996368 
	C96.794853,171.996368 97.036987,172.345779 97.012238,172.930359 
	C95.876610,177.414520 97.313744,180.465469 100.162048,183.046417 
	C100.099075,188.710114 100.036095,194.373825 99.619537,200.642212 
	C97.355713,204.651627 95.445473,208.056366 93.535233,211.461105 
	C93.535240,211.461105 93.367775,211.347900 93.240662,211.484543 
	C92.897667,211.935471 92.681786,212.249771 92.465897,212.564056 
	C92.465897,212.564056 92.409714,212.416443 92.264336,212.576508 
	C91.861969,213.017761 91.604988,213.298950 91.348000,213.580139 
	C91.348000,213.580139 91.275635,213.323853 91.174515,213.484161 
	C90.804977,213.940369 90.536568,214.236267 90.268158,214.532166 
	C90.268158,214.532166 90.339882,214.335709 90.082787,214.426254 
	C88.596848,215.420639 87.368004,216.324478 86.139160,217.228317 
	C86.139153,217.228317 86.144257,217.162888 85.799576,217.160065 
	C84.035118,217.895233 82.615349,218.633209 81.195580,219.371185 
	C80.632172,219.563202 80.068764,219.755219 78.879715,219.785828 
	C72.603226,218.671646 66.921661,217.866714 61.314747,216.702362 
	C58.600887,216.138779 56.027115,214.900604 53.389915,213.967865 
	C53.389912,213.967865 53.043819,213.773788 52.856327,213.270020 
	C51.708359,211.903000 50.747883,211.039749 49.787407,210.176514 
	C49.787407,210.176514 49.928738,210.074722 49.854992,209.760956 
	C48.488644,207.312988 47.196037,205.178787 45.903435,203.044586 
	C45.903435,203.044586 45.966423,203.021622 45.945976,202.631104 
	C45.587597,194.492966 45.249668,186.745316 44.911736,178.997681 
M58.040550,191.257767 
	C58.543549,193.857986 58.720226,196.577179 59.616009,199.034195 
	C61.613113,204.511993 65.516922,207.768387 71.577110,207.992416 
	C77.719803,208.219498 82.142860,205.662598 84.550331,199.792282 
	C87.530945,192.524414 87.374763,185.093948 83.899658,178.035019 
	C81.591461,173.346405 77.448807,170.915054 72.129868,171.051392 
	C66.892357,171.185623 62.489494,173.456131 60.522766,178.302826 
	C59.004749,182.043716 58.813538,186.323013 58.040550,191.257767 
z"/>
<path fill="#2EC689" opacity="1.000000" stroke="none" 
	d="
M53.563728,214.238770 
	C56.027115,214.900604 58.600887,216.138779 61.314747,216.702362 
	C66.921661,217.866714 72.603226,218.671646 78.576370,219.761719 
	C69.632324,222.207764 61.219467,220.531845 53.563728,214.238770 
z"/>
<path fill="#2EC689" opacity="1.000000" stroke="none" 
	d="
M44.700180,179.320099 
	C45.249668,186.745316 45.587597,194.492966 45.928749,202.659882 
	C42.271950,195.462708 42.455524,187.609573 44.700180,179.320099 
z"/>
<path fill="#2EC689" opacity="1.000000" stroke="none" 
	d="
M78.626816,159.013199 
	C73.127586,159.733002 67.244019,160.300583 60.892975,160.868103 
	C66.101669,157.865875 72.087402,157.611816 78.626816,159.013199 
z"/>
<path fill="#2EC689" opacity="1.000000" stroke="none" 
	d="
M100.431107,182.831116 
	C97.313744,180.465469 95.876610,177.414520 97.053360,173.138885 
	C98.312881,176.047180 99.506531,179.331497 100.431107,182.831116 
z"/>
<path fill="#2EC689" opacity="1.000000" stroke="none" 
	d="
M93.826141,211.294800 
	C95.445473,208.056366 97.355713,204.651627 99.571762,201.105804 
	C97.957397,204.352646 96.037224,207.740570 93.826141,211.294800 
z"/>
<path fill="#2EC689" opacity="1.000000" stroke="none" 
	d="
M94.250626,168.376648 
	C91.504723,166.498810 88.647156,164.301193 85.767822,161.768005 
	C88.543686,163.640579 91.341324,165.848724 94.250626,168.376648 
z"/>
<path fill="#2EC689" opacity="1.000000" stroke="none" 
	d="
M49.615425,169.048309 
	C48.632221,171.428192 47.341713,173.967514 45.731697,176.673950 
	C46.710835,174.296631 48.009476,171.752182 49.615425,169.048309 
z"/>
<path fill="#2EC689" opacity="1.000000" stroke="none" 
	d="
M59.701805,161.000092 
	C58.226315,162.259430 56.401794,163.549057 54.198845,164.833008 
	C55.664539,163.561661 57.508656,162.296005 59.701805,161.000092 
z"/>
<path fill="#2EC689" opacity="1.000000" stroke="none" 
	d="
M45.924545,203.395142 
	C47.196037,205.178787 48.488644,207.312988 49.793991,209.823151 
	C49.417034,209.825821 49.027332,209.452545 48.391113,208.958435 
	C48.144604,208.837601 48.063396,208.875137 48.094246,208.840149 
	C47.398621,207.118668 46.672138,205.432175 45.924545,203.395142 
z"/>
<path fill="#2EC689" opacity="1.000000" stroke="none" 
	d="
M53.546646,164.919708 
	C52.754795,166.137802 51.659885,167.474564 50.221802,168.866226 
	C51.000278,167.626877 52.121933,166.332642 53.546646,164.919708 
z"/>
<path fill="#2EC689" opacity="1.000000" stroke="none" 
	d="
M81.545151,219.345764 
	C82.615349,218.633209 84.035118,217.895233 85.830208,217.171844 
	C84.768593,217.897720 83.331665,218.609039 81.545151,219.345764 
z"/>
<path fill="#2EC689" opacity="1.000000" stroke="none" 
	d="
M85.088364,161.081909 
	C84.057281,160.977951 82.756516,160.691025 81.268372,160.113617 
	C82.326889,160.181732 83.572784,160.540344 85.088364,161.081909 
z"/>
<path fill="#2EC689" opacity="1.000000" stroke="none" 
	d="
M49.903332,210.480530 
	C50.747883,211.039749 51.708359,211.903000 52.752670,213.100845 
	C51.897423,212.551834 50.958340,211.668198 49.903332,210.480530 
z"/>
<path fill="#2EC689" opacity="1.000000" stroke="none" 
	d="
M86.473450,217.179031 
	C87.368004,216.324478 88.596848,215.420639 90.180954,214.462280 
	C89.293388,215.315094 88.050560,216.222412 86.473450,217.179031 
z"/>
<path fill="#2EC689" opacity="1.000000" stroke="none" 
	d="
M96.737289,171.695496 
	C95.981361,171.104141 95.167877,170.211914 94.336906,168.986694 
	C95.106194,169.567352 95.892967,170.480988 96.737289,171.695496 
z"/>
<path fill="#2EC689" opacity="1.000000" stroke="none" 
	d="
M92.737534,212.420471 
	C92.681786,212.249771 92.897667,211.935471 93.297371,211.400879 
	C93.323845,211.546021 93.166504,211.911453 92.737534,212.420471 
z"/>
<path fill="#2EC689" opacity="1.000000" stroke="none" 
	d="
M91.630325,213.468292 
	C91.604988,213.298950 91.861969,213.017761 92.338226,212.548630 
	C92.342545,212.692612 92.127594,213.024536 91.630325,213.468292 
z"/>
<path fill="#2EC689" opacity="1.000000" stroke="none" 
	d="
M90.566101,214.417633 
	C90.536568,214.236267 90.804977,213.940369 91.302696,213.448135 
	C91.309357,213.602219 91.086708,213.952652 90.566101,214.417633 
z"/>
<path fill="#063829" opacity="1.000000" stroke="none" 
	d="
M168.710892,198.928833 
	C162.594025,197.070160 156.367828,195.034393 150.271378,192.664810 
	C148.315430,191.904572 145.210327,190.257812 145.214172,189.024734 
	C145.225403,185.440033 148.571899,185.627655 151.237732,185.783661 
	C152.340714,185.848221 153.862839,186.139755 154.422409,186.897842 
	C157.980240,191.718018 163.075516,190.925156 168.414276,190.995895 
	C166.198441,191.568039 163.549194,192.083466 161.650497,192.452866 
	C163.895706,194.431290 166.273788,196.526810 168.710892,198.928833 
z"/>
<path fill="#063829" opacity="1.000000" stroke="none" 
	d="
M181.766785,195.599075 
	C179.058395,197.280746 176.148712,198.722092 172.961670,200.353973 
	C173.599976,195.591354 176.625259,193.824875 181.766785,195.599075 
z"/>
<path fill="#063829" opacity="1.000000" stroke="none" 
	d="
M172.071350,200.624130 
	C172.049255,201.377029 171.512161,202.073502 170.975052,202.769974 
	C170.540466,202.163040 170.105881,201.556122 169.579147,200.693649 
	C170.176773,200.481308 170.866562,200.524506 172.071350,200.624130 
z"/>
<path fill="#063829" opacity="1.000000" stroke="none" 
	d="
M186.696136,194.509384 
	C186.502533,194.570984 186.165985,194.567795 185.592987,194.494370 
	C185.755432,194.430954 186.154327,194.437759 186.696136,194.509384 
z"/>
<path fill="#063829" opacity="1.000000" stroke="none" 
	d="
M169.739258,200.058350 
	C169.605591,200.047180 169.260590,199.840256 168.832031,199.318832 
	C169.008301,199.290421 169.268112,199.576508 169.739258,200.058350 
z"/>
<path fill="#073A29" opacity="1.000000" stroke="none" 
	d="
M291.042938,197.090836 
	C290.721649,196.259354 289.953491,195.300705 290.148285,194.616074 
	C292.078888,187.831360 294.168854,181.091995 296.213745,174.339798 
	C296.709747,174.291336 297.205750,174.242889 297.701752,174.194443 
	C299.330200,181.739365 300.958618,189.284286 301.872375,196.869171 
	C299.094818,196.825790 297.031982,196.742477 295.078186,196.345734 
	C295.868713,194.899628 296.478668,193.715805 297.245361,192.644104 
	C299.356537,189.692963 298.562012,187.603928 294.416412,185.203674 
	C293.559662,189.457565 292.835785,193.051712 291.847992,196.765076 
	C291.403687,196.953140 291.223328,197.021988 291.042938,197.090836 
z"/>
<path fill="#2AD58F" opacity="1.000000" stroke="none" 
	d="
M291.078217,197.299637 
	C291.223328,197.021988 291.403687,196.953140 292.200928,196.826675 
	C293.534912,196.732407 294.252045,196.695786 294.969147,196.659149 
	C297.031982,196.742477 299.094818,196.825790 301.590881,197.008438 
	C300.484161,201.723572 298.943085,202.405045 295.024292,200.112000 
	C293.674896,199.322418 292.414520,198.380661 291.078217,197.299637 
z"/>
<path fill="#2AD58F" opacity="1.000000" stroke="none" 
	d="
M311.613831,205.876953 
	C311.645264,203.998962 311.781891,202.439835 311.918488,200.880722 
	C312.685089,200.884506 313.451691,200.888275 314.218292,200.892059 
	C314.218292,202.974487 314.218292,205.056915 314.218292,207.139343 
	C313.385193,206.824829 312.552094,206.510330 311.613831,205.876953 
z"/>
<path fill="#2AD58F" opacity="1.000000" stroke="none" 
	d="
M308.684845,185.715363 
	C308.068939,185.009033 307.547546,184.083450 307.026154,183.157883 
	C307.455536,182.979401 307.884918,182.800934 308.314270,182.622467 
	C308.469299,183.580353 308.624329,184.538239 308.684845,185.715363 
z"/>
<path fill="#2AD58F" opacity="1.000000" stroke="none" 
	d="
M277.589508,212.945053 
	C276.937775,212.912354 276.431091,212.727737 275.924438,212.543121 
	C276.215576,212.217133 276.506714,211.891129 276.797852,211.565125 
	C277.110077,211.974457 277.422333,212.383804 277.589508,212.945053 
z"/>
<path fill="#2AD58F" opacity="1.000000" stroke="none" 
	d="
M309.742188,190.453979 
	C310.055176,190.700455 310.251678,191.030701 310.416931,191.375900 
	C310.426575,191.395981 310.183167,191.537186 310.057526,191.622009 
	C309.911316,191.261673 309.765106,190.901352 309.742188,190.453979 
z"/>
<path fill="#043D29" opacity="1.000000" stroke="none" 
	d="
M195.377991,209.304077 
	C193.235794,210.210999 191.034729,211.922668 188.969971,211.771561 
	C187.302002,211.649506 185.136627,209.572296 184.377106,207.842117 
	C183.240189,205.252319 185.052856,203.604446 187.726746,203.048843 
	C190.896744,202.390167 194.057739,201.688080 198.867676,200.649689 
	C197.680786,204.213882 196.879089,206.621353 195.669525,208.792267 
	C194.788544,206.975113 194.315430,205.394485 193.915588,204.058655 
	C191.320236,205.622208 189.498795,206.719543 187.677338,207.816879 
	C187.688217,208.312622 187.699097,208.808350 187.709961,209.304092 
	C190.265976,209.304092 192.821976,209.304092 195.377991,209.304077 
z"/>
<path fill="#112627" opacity="1.000000" stroke="none" 
	d="
M58.036484,190.810349 
	C58.813538,186.323013 59.004749,182.043716 60.522766,178.302826 
	C62.489494,173.456131 66.892357,171.185623 72.129868,171.051392 
	C77.448807,170.915054 81.591461,173.346405 83.899658,178.035019 
	C87.374763,185.093948 87.530945,192.524414 84.550331,199.792282 
	C82.142860,205.662598 77.719803,208.219498 71.577110,207.992416 
	C65.516922,207.768387 61.613113,204.511993 59.616009,199.034195 
	C58.720226,196.577179 58.543549,193.857986 58.036484,190.810349 
z"/>
<path fill="#171F24" opacity="1.000000" stroke="none" 
	d="
M295.078186,196.345734 
	C294.252045,196.695786 293.534912,196.732407 292.464844,196.707458 
	C292.835785,193.051712 293.559662,189.457565 294.416412,185.203674 
	C298.562012,187.603928 299.356537,189.692963 297.245361,192.644104 
	C296.478668,193.715805 295.868713,194.899628 295.078186,196.345734 
z"/>
<path fill="#171E26" opacity="1.000000" stroke="none" 
	d="
M195.354767,209.285339 
	C192.821976,209.304092 190.265976,209.304092 187.709961,209.304092 
	C187.699097,208.808350 187.688217,208.312622 187.677338,207.816879 
	C189.498795,206.719543 191.320236,205.622208 193.915588,204.058655 
	C194.315430,205.394485 194.788544,206.975113 195.326996,208.932114 
	C195.392365,209.308502 195.331543,209.266602 195.354767,209.285339 
z"/>
</svg>