<?xml version="1.0" standalone="no"?>
<!DOCTYPE svg PUBLIC "-//W3C//DTD SVG 20010904//EN"
 "http://www.w3.org/TR/2001/REC-SVG-20010904/DTD/svg10.dtd">
<svg version="1.0" xmlns="http://www.w3.org/2000/svg"
 width="390.000000pt" height="390.000000pt" viewBox="0 0 390.000000 390.000000"
 preserveAspectRatio="xMidYMid meet">

<g transform="translate(0.000000,390.000000) scale(0.100000,-0.100000)"
fill="#000000" stroke="none">
<path d="M0 1950 l0 -1950 1950 0 1950 0 0 1950 0 1950 -1950 0 -1950 0 0
-1950z m838 347 c109 -50 168 -164 160 -306 -8 -124 -68 -220 -167 -264 -70
-31 -180 -28 -247 6 -125 63 -188 218 -150 365 24 97 72 159 154 201 65 34
176 33 250 -2z m2211 9 c6 -7 48 -119 92 -247 44 -129 89 -256 99 -284 l19
-50 0 292 1 293 23 5 c13 4 44 4 68 1 24 -2 47 -5 52 -5 4 -1 6 -135 5 -298
l-3 -298 -151 -3 -152 -3 -18 61 -18 61 -110 -3 -111 -3 -19 -57 -20 -58 -73
0 c-40 0 -73 4 -73 9 0 5 41 127 91 272 50 145 93 273 96 284 10 36 33 45 114
45 52 0 80 -4 88 -14z m-1484 -167 c51 -13 110 -65 117 -103 3 -14 3 -28 0
-31 -3 -3 -29 -5 -58 -5 -45 0 -56 4 -69 24 -28 42 -115 40 -115 -3 0 -26 21
-37 111 -56 78 -16 118 -38 134 -73 12 -28 18 -28 30 1 14 31 85 64 158 72 73
9 97 19 97 43 0 28 -21 42 -62 42 -29 0 -41 -6 -54 -25 -14 -22 -23 -25 -76
-25 l-60 0 6 32 c15 73 80 112 191 113 89 0 130 -17 169 -68 19 -26 21 -44 24
-198 l3 -169 -65 0 c-65 0 -71 3 -67 38 3 17 -3 15 -45 -13 -28 -19 -49 -25
-93 -25 -65 0 -106 22 -131 69 l-15 30 -20 -29 c-33 -49 -90 -74 -170 -75 -93
0 -154 24 -189 73 -42 62 -37 72 38 72 57 0 65 -3 80 -26 15 -22 23 -25 63
-22 31 2 49 9 57 21 16 26 -11 43 -92 57 -37 6 -81 18 -97 26 -36 17 -65 61
-65 98 0 23 -4 26 -35 26 -46 0 -80 -17 -94 -47 -6 -13 -11 -79 -11 -149 l0
-125 -67 3 -68 3 -3 213 -2 213 67 -3 c60 -3 68 -5 69 -23 2 -34 3 -34 33 -4
23 23 39 29 70 29 l41 0 0 -42 1 -43 22 26 c51 61 144 83 242 58z m714 -131
c23 -73 44 -137 45 -143 4 -12 6 -8 56 148 l41 127 70 0 c38 0 69 -1 69 -2 0
-2 -45 -122 -100 -268 -79 -210 -105 -271 -129 -292 -31 -28 -90 -42 -151 -36
-35 3 -35 3 -35 53 l0 50 45 5 c36 4 47 10 57 31 14 29 18 17 -103 327 -24 62
-44 117 -44 122 0 6 31 10 69 10 l69 0 41 -132z m1286 -178 c42 -46 10 -120
-52 -120 -62 0 -94 65 -57 118 20 29 83 31 109 2z"/>
<path d="M655 2190 c-52 -21 -85 -89 -85 -174 0 -76 16 -121 56 -155 45 -40
113 -43 165 -8 92 61 85 282 -11 332 -31 16 -93 19 -125 5z"/>
<path d="M2922 2071 c-18 -60 -32 -115 -32 -120 0 -7 27 -11 70 -11 39 0 70 1
70 3 0 8 -69 230 -73 233 -2 2 -18 -45 -35 -105z"/>
<path d="M1896 1889 c-47 -11 -66 -25 -66 -49 0 -26 27 -44 67 -43 46 1 73 27
73 70 0 36 -5 38 -74 22z"/>
</g>
</svg>
